<svg xmlns="http://www.w3.org/2000/svg" width="24" height="24" viewBox="0 0 24 24" fill="none">
<path d="M10.2672 17.9014C11.8782 17.8993 13.4482 17.3934 14.7574 16.4546L19.5184 21.216C19.6253 21.3223 19.7522 21.4063 19.8919 21.4632C20.0315 21.5201 20.181 21.5486 20.3318 21.5473C20.9849 21.5473 21.4568 21.045 21.4568 20.4021C21.4568 20.1009 21.3565 19.8197 21.1354 19.599L16.4044 14.8577C17.3987 13.5519 17.9914 11.9349 17.9914 10.1769C17.9914 5.928 14.5161 2.45271 10.2672 2.45271C6.00852 2.45271 2.54309 5.928 2.54309 10.1769C2.54309 14.4257 6.00852 17.9014 10.2672 17.9014ZM10.2672 16.2339C6.94238 16.2339 4.21023 13.4919 4.21023 10.1769C4.21023 6.86229 6.94238 4.11986 10.2672 4.11986C13.5818 4.11986 16.3242 6.86229 16.3242 10.1769C16.3242 13.4919 13.5818 16.2339 10.2672 16.2339Z" fill="#EAEAEA"/>
</svg>