<svg width="270" height="103" viewBox="0 0 270 103" fill="none" xmlns="http://www.w3.org/2000/svg">
<path d="M7.48975 56.4242L64.4477 37.0012L62.4451 91.0165L15.2758 91.907L7.48975 56.4242Z" fill="#B70A80"/>
<path d="M61.6049 70.0181C61.6049 74.9479 56.2605 78.9431 49.6678 78.9431C43.0759 78.9431 37.7314 74.9476 37.7314 70.0181C37.7314 65.0886 43.0759 61.093 49.6678 61.093C56.2605 61.093 61.6049 65.0886 61.6049 70.0181Z" fill="white"/>
<path d="M43.1417 71.4433C43.1417 72.5782 42.2702 73.4987 41.1939 73.4987C40.118 73.4987 39.2461 72.5782 39.2461 71.4433C39.2461 70.3068 40.118 69.3853 41.1939 69.3853C42.2702 69.3853 43.1417 70.3068 43.1417 71.4433Z" fill="#002547"/>
<path d="M12.1787 71.4421C12.1787 76.372 17.5231 80.3672 24.1158 80.3672C30.7077 80.3672 36.0521 76.3716 36.0521 71.4421C36.0521 66.5127 30.7077 62.5171 24.1158 62.5171C17.5231 62.5171 12.1787 66.5127 12.1787 71.4421Z" fill="white"/>
<path d="M30.6411 72.8674C30.6411 74.0023 31.5127 74.9228 32.5889 74.9228C33.6648 74.9228 34.5367 74.0023 34.5367 72.8674C34.5367 71.7308 33.6648 70.8093 32.5889 70.8093C31.5127 70.8093 30.6411 71.7308 30.6411 72.8674Z" fill="#002547"/>
<path d="M56.7727 39.5726L53.4612 49.2948L45.9253 51.0279L48.7078 42.3286L56.7727 39.5726Z" fill="#E7A3D1"/>
<path d="M16.8677 53.2135L15.1649 58.1113L8.21007 59.7114L7.48877 56.4192L16.8677 53.2135Z" fill="#E7A3D1"/>
<path d="M37.8447 46.0439L35.391 53.4554L25.2305 55.7923L27.4767 49.5853L37.8447 46.0439Z" fill="#E7A3D1"/>
<path d="M4.84717 44.2187L18.3199 48.1464L27.1977 40.87L12.0753 37.441L4.84717 44.2187Z" fill="#B70A80"/>
<path d="M55.6256 17.5118L51.6204 0.490845L37.2979 13.897L53.1236 19.523L55.6256 17.5118Z" fill="#B70A80"/>
<path d="M46.9046 24.649L29.3419 21.3175L20.1235 29.9445L34.1776 35.0876L46.9046 24.649Z" fill="#B70A80"/>
<path d="M46.6888 24.8646L53.4124 19.3331L37.5732 13.6223L29.2261 21.4253L46.6888 24.8646Z" fill="#E7A3D1"/>
<path d="M20.2872 29.7808L11.8325 37.6837L27.0049 41.0627L36.2188 33.4806L20.2872 29.7808Z" fill="#E7A3D1"/>
<path d="M0.448242 48.3272L7.66844 57.2391L8.95389 55.9175L18.6126 47.9681L4.92593 44.1396L0.448242 48.3272Z" fill="#E7A3D1"/>
<path d="M103.604 55.609C104.543 55.609 105.57 55.829 106.684 56.269C107.711 56.6797 108.224 57.457 108.224 58.601V88.917C108.224 90.325 107.359 91.029 105.628 91.029C103.898 91.029 103.032 90.325 103.032 88.917V66.301L101.756 66.169L99.9963 71.889L94.7163 89.489C94.3936 90.5157 93.6016 91.0143 92.3403 90.985C91.783 90.9557 91.299 90.809 90.8883 90.545C90.4776 90.281 90.199 89.8997 90.0523 89.401L86.8843 79.149C86.239 77.125 85.5936 75.0717 84.9483 72.989C84.303 70.877 83.599 68.545 82.8363 65.993L81.5603 66.169V88.917C81.5603 90.325 80.695 91.029 78.9643 91.029C77.2336 91.029 76.3683 90.325 76.3683 88.917V58.601C76.3683 57.4863 76.8816 56.709 77.9083 56.269C78.9936 55.829 80.035 55.6237 81.0323 55.653C81.4723 55.653 81.927 55.7117 82.3963 55.829C82.8656 55.9463 83.3056 56.1223 83.7163 56.357C84.127 56.5623 84.4936 56.841 84.8163 57.193C85.139 57.5157 85.3883 57.897 85.5643 58.337L92.4723 81.877C92.971 80.1463 93.499 78.269 94.0563 76.245C94.6136 74.221 95.1856 72.1677 95.7723 70.085C96.359 68.0023 96.931 65.949 97.4883 63.925C98.075 61.8717 98.6176 59.965 99.1163 58.205C99.2923 57.7943 99.5416 57.4277 99.8643 57.105C100.187 56.7823 100.554 56.5183 100.964 56.313C101.375 56.0783 101.8 55.9023 102.24 55.785C102.71 55.6677 103.164 55.609 103.604 55.609ZM128.129 64.277C128.891 64.277 129.669 64.4383 130.461 64.761C131.282 65.0837 132.074 65.4943 132.837 65.993H132.793C133.555 66.5503 134.142 67.2837 134.553 68.193C134.963 69.073 135.169 70.0997 135.169 71.273V83.769C135.169 86.1743 134.377 87.949 132.793 89.093C131.238 90.2077 129.683 90.765 128.129 90.765H121.089C120.326 90.765 119.549 90.633 118.757 90.369C117.965 90.105 117.187 89.6797 116.425 89.093C114.841 87.9783 114.049 86.2037 114.049 83.769V71.273C114.049 70.0997 114.254 69.073 114.665 68.193C115.075 67.2837 115.662 66.5503 116.425 65.993H116.381C117.114 65.4943 117.891 65.0837 118.713 64.761C119.534 64.4383 120.326 64.277 121.089 64.277H128.129ZM127.337 86.629C128.422 86.629 129.185 86.321 129.625 85.705C130.094 85.089 130.329 84.429 130.329 83.725V71.317C130.329 70.5837 130.094 69.9237 129.625 69.337C129.185 68.721 128.422 68.413 127.337 68.413H121.881C120.795 68.413 120.018 68.721 119.549 69.337C119.109 69.9237 118.889 70.5837 118.889 71.317V83.725C118.889 84.429 119.109 85.089 119.549 85.705C120.018 86.321 120.795 86.629 121.881 86.629H127.337ZM149.708 91.029C149.65 91.029 149.576 91.0143 149.488 90.985C149.4 90.985 149.312 90.985 149.224 90.985C149.078 90.985 148.872 90.985 148.608 90.985C148.344 90.985 148.095 90.9703 147.86 90.941C147.362 90.9117 146.936 90.7797 146.584 90.545C146.232 90.281 145.983 89.973 145.836 89.621L138.444 66.917C138.298 66.301 138.371 65.7583 138.664 65.289C138.987 64.7903 139.486 64.4237 140.16 64.189C140.366 64.1303 140.571 64.0863 140.776 64.057C140.982 64.0277 141.158 64.013 141.304 64.013C142.214 64.013 142.844 64.5117 143.196 65.509L146.408 75.497L149.796 85.969L156.396 65.509C156.719 64.4823 157.306 63.969 158.156 63.969C158.479 63.969 158.89 64.0423 159.388 64.189C160.151 64.3943 160.679 64.7463 160.972 65.245C161.266 65.7143 161.31 66.2717 161.104 66.917L153.756 89.621C153.492 90.4423 152.803 90.8823 151.688 90.941C151.63 90.941 151.556 90.941 151.468 90.941C151.41 90.9703 151.351 90.985 151.292 90.985C151.058 91.0143 150.852 91.029 150.676 91.029C150.5 91.029 150.339 91.029 150.192 91.029H149.708ZM169.982 88.917C169.982 90.325 169.175 91.029 167.562 91.029C165.919 91.029 165.098 90.325 165.098 88.917V66.213C165.098 64.805 165.919 64.101 167.562 64.101C169.175 64.101 169.982 64.805 169.982 66.213V88.917ZM170.906 58.557C170.906 59.4957 170.583 60.2877 169.938 60.933C169.292 61.5783 168.5 61.901 167.562 61.901C166.623 61.901 165.816 61.5783 165.142 60.933C164.496 60.2877 164.174 59.4957 164.174 58.557C164.174 57.589 164.496 56.7823 165.142 56.137C165.816 55.4917 166.623 55.169 167.562 55.169C168.5 55.169 169.292 55.4917 169.938 56.137C170.583 56.7823 170.906 57.589 170.906 58.557ZM180.936 83.725C180.936 84.429 181.156 85.089 181.596 85.705C182.065 86.321 182.842 86.629 183.928 86.629H189.428C190.513 86.629 191.276 86.365 191.716 85.837C192.185 85.2797 192.42 84.649 192.42 83.945V83.461C192.42 82.0823 193.226 81.393 194.84 81.393C196.453 81.393 197.26 82.0823 197.26 83.461V83.989C197.26 85.221 197.054 86.233 196.644 87.025C196.262 87.817 195.676 88.5063 194.884 89.093C193.329 90.2077 191.774 90.765 190.22 90.765H182.828C181.273 90.765 179.762 90.2077 178.296 89.093C177.592 88.5063 177.049 87.773 176.668 86.893C176.286 85.9837 176.096 84.9423 176.096 83.769V71.229C176.096 68.853 176.829 67.093 178.296 65.949C179.029 65.421 179.777 65.0103 180.54 64.717C181.332 64.3943 182.094 64.233 182.828 64.233H190.22C190.924 64.233 191.701 64.3797 192.552 64.673C193.402 64.937 194.194 65.3037 194.928 65.773C195.632 66.2717 196.189 66.961 196.6 67.841C197.04 68.721 197.26 69.7623 197.26 70.965V76.905C197.26 77.5797 197.054 78.181 196.644 78.709C196.262 79.237 195.544 79.501 194.488 79.501H184.984C183.928 79.501 183.37 78.8117 183.312 77.433C183.312 76.0543 183.869 75.365 184.984 75.365H192.464L192.42 71.273C192.42 70.5397 192.185 69.8797 191.716 69.293C191.276 68.677 190.513 68.369 189.428 68.369H183.928C182.842 68.369 182.065 68.677 181.596 69.293C181.156 69.8797 180.936 70.5397 180.936 71.273V83.725ZM208.497 88.917C208.497 90.325 207.632 91.029 205.901 91.029C204.171 91.029 203.305 90.325 203.305 88.917V58.469C203.305 57.7943 203.496 57.193 203.877 56.665C204.259 56.1077 204.992 55.829 206.077 55.829H221.037C222.093 55.829 222.651 56.5623 222.709 58.029C222.768 59.525 222.211 60.273 221.037 60.273H208.497V88.917ZM219.761 72.593C219.761 73.0917 219.659 73.5757 219.453 74.045C219.277 74.485 219.013 74.8663 218.661 75.189C218.339 75.5117 217.957 75.7757 217.517 75.981C217.077 76.157 216.593 76.245 216.065 76.245C215.068 76.245 214.217 75.893 213.513 75.189C212.809 74.485 212.457 73.6197 212.457 72.593C212.457 71.5663 212.809 70.701 213.513 69.997C214.217 69.293 215.068 68.941 216.065 68.941C216.593 68.941 217.077 69.0437 217.517 69.249C217.957 69.425 218.339 69.689 218.661 70.041C219.013 70.3637 219.277 70.745 219.453 71.185C219.659 71.625 219.761 72.0943 219.761 72.593ZM232.116 89.049C232.116 90.4277 231.309 91.117 229.696 91.117C228.053 91.117 227.232 90.4277 227.232 89.049V57.501C227.232 56.1223 228.053 55.433 229.696 55.433C231.309 55.433 232.116 56.1223 232.116 57.501V89.049ZM243.158 88.917C243.158 90.325 242.351 91.029 240.738 91.029C239.095 91.029 238.274 90.325 238.274 88.917V66.213C238.274 64.805 239.095 64.101 240.738 64.101C242.351 64.101 243.158 64.805 243.158 66.213V88.917ZM244.082 58.557C244.082 59.4957 243.759 60.2877 243.114 60.933C242.468 61.5783 241.676 61.901 240.738 61.901C239.799 61.901 238.992 61.5783 238.318 60.933C237.672 60.2877 237.35 59.4957 237.35 58.557C237.35 57.589 237.672 56.7823 238.318 56.137C238.992 55.4917 239.799 55.169 240.738 55.169C241.676 55.169 242.468 55.4917 243.114 56.137C243.759 56.7823 244.082 57.589 244.082 58.557ZM260.227 77.301L267.619 87.729C267.825 88.0223 267.927 88.345 267.927 88.697C267.927 89.313 267.487 89.929 266.607 90.545C266.05 90.9263 265.522 91.117 265.023 91.117C264.73 91.117 264.422 91.0143 264.099 90.809C263.806 90.6037 263.527 90.3397 263.263 90.017L257.235 81.525C256.795 82.141 256.311 82.8157 255.783 83.549C255.285 84.2823 254.771 85.0303 254.243 85.793C253.715 86.5263 253.187 87.2597 252.659 87.993C252.161 88.7263 251.691 89.401 251.251 90.017C250.694 90.7503 250.093 91.117 249.447 91.117C248.89 91.117 248.362 90.9263 247.863 90.545C247.453 90.2517 247.13 89.973 246.895 89.709C246.69 89.4157 246.587 89.093 246.587 88.741C246.587 88.389 246.705 88.0517 246.939 87.729L254.243 77.301C253.158 75.7463 252.014 74.1183 250.811 72.417C249.609 70.7157 248.465 69.073 247.379 67.489C247.262 67.2837 247.145 67.0637 247.027 66.829C246.939 66.565 246.895 66.3597 246.895 66.213C246.895 65.597 247.306 65.025 248.127 64.497H248.083C248.377 64.3503 248.641 64.233 248.875 64.145C249.139 64.0277 249.389 63.969 249.623 63.969C250.415 63.969 251.105 64.3943 251.691 65.245L257.235 73.121L262.779 65.245C263.395 64.3943 264.085 63.969 264.847 63.969C265.111 63.969 265.361 64.0277 265.595 64.145C265.83 64.233 266.094 64.3503 266.387 64.497H266.343C267.194 65.025 267.619 65.597 267.619 66.213C267.619 66.565 267.443 66.9903 267.091 67.489L260.227 77.301Z" fill="#B70A80"/>
</svg>
