<svg width="221" height="316" viewBox="0 0 221 316" fill="none" xmlns="http://www.w3.org/2000/svg">
<g clip-path="url(#clip0_202_3623)">
<rect width="220.116" height="316" rx="8.11" fill="#222C38"/>
<path d="M110.058 356.476C210.689 356.476 292.268 274.897 292.268 174.266C292.268 73.6338 210.689 -7.94434 110.058 -7.94434C9.42583 -7.94434 -72.1523 73.6338 -72.1523 174.266C-72.1523 274.897 9.42583 356.476 110.058 356.476Z" fill="#222C38"/>
<mask id="mask0_202_3623" style="mask-type:luminance" maskUnits="userSpaceOnUse" x="-73" y="-8" width="366" height="365">
<path d="M110.058 356.476C210.689 356.476 292.268 274.897 292.268 174.266C292.268 73.6338 210.689 -7.94434 110.058 -7.94434C9.42583 -7.94434 -72.1523 73.6338 -72.1523 174.266C-72.1523 274.897 9.42583 356.476 110.058 356.476Z" fill="white"/>
</mask>
<g mask="url(#mask0_202_3623)">
<path d="M198.338 243.8C186.07 212.978 161.769 193.655 135.273 193.655H84.8476C58.3519 193.655 34.0507 212.978 21.7823 243.8L-25.4355 362.427H245.556L198.338 243.8Z" fill="#D5D5D5"/>
<path d="M110.059 170.529C140.148 170.529 164.54 138.354 164.54 98.6641C164.54 58.974 140.148 26.7988 110.059 26.7988C79.9702 26.7988 55.5781 58.974 55.5781 98.6641C55.5781 138.354 79.9702 170.529 110.059 170.529Z" fill="#D5D5D5"/>
</g>
</g>
<defs>
<clipPath id="clip0_202_3623">
<rect width="220.116" height="316" rx="8.11" fill="white"/>
</clipPath>
</defs>
</svg>
