<svg width="281" height="281" viewBox="0 0 281 281" fill="none" xmlns="http://www.w3.org/2000/svg">
<path d="M101.869 243.018C116.726 251.973 127.325 248.256 131.382 241.075C139.229 227.188 165.32 198.791 206.665 189.193C261.426 176.481 249.99 142.729 216.326 125.017C182.663 107.306 157.492 82.7983 161.302 56.1508C165.112 29.5034 127.366 20.3171 110.58 71.5779C99.7325 104.705 80.2931 113.579 67.897 115.713C56.2138 117.723 43.4339 120.246 37.2018 130.33C29.6396 142.566 32.2785 154.944 63.9399 163.433C108.807 175.463 68.5691 222.946 101.869 243.018Z" fill="#222C38"/>
<path d="M101.869 243.018C116.726 251.973 127.325 248.256 131.382 241.075C139.229 227.188 165.32 198.791 206.665 189.193C261.426 176.481 249.99 142.729 216.326 125.017C182.663 107.306 157.492 82.7983 161.302 56.1508C165.112 29.5034 127.366 20.3171 110.58 71.5779C99.7325 104.705 80.2931 113.579 67.897 115.713C56.2138 117.723 43.4339 120.246 37.2018 130.33C29.6396 142.566 32.2785 154.944 63.9399 163.433C108.807 175.463 68.5691 222.946 101.869 243.018Z" fill="url(#paint0_linear_185_3203)" fill-opacity="0.23"/>
<path d="M63.2687 184.959C63.8974 184.599 70.9937 181.595 106.297 198.053C106.194 198.193 106.15 198.259 106.15 198.259C106.15 198.259 69.4492 210.619 62.2584 195.392C60.1111 190.86 60.7264 187.738 63.2073 184.994L63.2687 184.959Z" fill="#0C2037"/>
<path d="M181.925 191.187C174.255 197.634 162.227 202.315 150.621 196.091C152.455 194.919 154.349 193.712 156.281 192.463C167.937 184.975 178.203 189.985 181.925 191.187Z" fill="#0C2037"/>
<path d="M195.663 111.883C203.499 177.135 184.877 188.977 182.803 190.776C182.203 191.297 181.96 191.259 181.053 191.025L181.037 191.034C177.196 190.016 167.936 184.974 156.281 192.462C154.349 193.711 152.454 194.918 150.62 196.09C138.73 203.631 129.128 208.945 122.211 205.861C116.343 202.867 111.053 200.277 106.297 198.052C70.9936 181.594 63.8973 184.598 63.2686 184.958C63.9981 184.56 70.6905 180.851 79.7018 174.327C79.7324 174.31 79.7631 174.292 79.7697 174.268C91.8144 165.539 107.945 151.783 119.539 134.088C127.432 122.055 135.154 91.5509 150.053 85.5657C180.672 74.1431 194.392 98.6102 195.663 111.883Z" fill="#697788"/>
<path d="M161.806 110.738C162.757 108.228 162.664 105.867 161.599 105.464C160.535 105.06 158.901 106.768 157.95 109.278C157 111.788 157.093 114.149 158.157 114.552C159.222 114.956 160.856 113.248 161.806 110.738Z" fill="#0C2037"/>
<path d="M181.303 113.94C181.976 111.343 181.629 109.005 180.527 108.719C179.425 108.434 177.985 110.308 177.311 112.906C176.638 115.503 176.985 117.841 178.087 118.127C179.189 118.413 180.629 116.538 181.303 113.94Z" fill="#0C2037"/>
<path d="M169.435 123.478C169.275 123.478 169.12 123.423 168.996 123.322C168.871 123.222 168.785 123.082 168.751 122.926C168.626 122.361 168.071 120.689 167.191 120.441C166.311 120.192 164.584 121.157 163.885 121.663C163.735 121.772 163.547 121.817 163.364 121.788C163.181 121.758 163.016 121.657 162.907 121.507C162.799 121.357 162.754 121.169 162.783 120.986C162.813 120.802 162.913 120.638 163.064 120.529C163.339 120.33 165.805 118.595 167.571 119.093C169.413 119.613 170.052 122.321 170.119 122.629C170.141 122.731 170.14 122.837 170.116 122.939C170.092 123.04 170.046 123.136 169.98 123.217C169.914 123.299 169.831 123.364 169.737 123.409C169.642 123.454 169.539 123.478 169.434 123.478H169.435Z" fill="#0C2037"/>
<defs>
<linearGradient id="paint0_linear_185_3203" x1="116.738" y1="44.8776" x2="195.768" y2="174.653" gradientUnits="userSpaceOnUse">
<stop stop-color="#FF004D"/>
<stop offset="1" stop-color="#1F2F98"/>
</linearGradient>
</defs>
</svg>
