<svg width="97" height="108" viewBox="0 0 97 108" fill="none" xmlns="http://www.w3.org/2000/svg">
<path d="M96.5796 16.3573C96.4896 15.8963 96.0936 15.5623 95.6246 15.5483C91.1896 15.4283 80.7246 16.1803 75.5696 25.2663C72.4546 20.1583 67.9226 16.0093 62.5236 13.3623C65.9836 12.0873 68.3036 10.2533 68.3036 7.89832C68.3036 2.97632 58.1786 0.320312 48.6536 0.320312C39.1286 0.320312 29.0036 2.97632 29.0036 7.89832C29.0036 10.2773 31.3726 12.1263 34.8936 13.4013C29.3296 16.1493 24.6976 20.4993 21.5916 25.8423C16.5586 16.2103 5.74958 15.4203 1.21858 15.5483C0.751577 15.5623 0.355604 15.8983 0.265604 16.3573C0.252604 16.4173 -0.598425 21.1453 3.41657 24.5833C2.73857 25.7473 2.61059 27.2763 3.10359 28.8853C3.63259 30.6133 5.04757 32.6543 7.41657 33.9883C7.50857 34.9463 7.89459 36.8203 9.46159 38.4313C11.2136 40.2313 13.8736 41.1513 17.3656 41.1713C17.3636 41.3023 17.3556 41.4313 17.3556 41.5623C17.3556 58.8713 31.4376 72.9533 48.7486 72.9533C66.0576 72.9533 80.1406 58.8713 80.1406 41.5623C80.1406 41.4233 80.1316 41.2883 80.1296 41.1503C83.3006 41.0233 85.7436 40.1173 87.3846 38.4313C88.9516 36.8203 89.3376 34.9453 89.4306 33.9873C91.7976 32.6523 93.2126 30.6123 93.7416 28.8843C94.2346 27.2773 94.1056 25.7463 93.4286 24.5823C97.4426 21.1453 96.5896 16.4173 96.5796 16.3573ZM91.8296 28.2993C91.2396 30.2273 89.2256 32.6863 85.4936 33.2763C84.9486 33.3623 84.5756 33.8743 84.6636 34.4213C84.7396 34.9133 85.1656 35.2653 85.6496 35.2653C85.7006 35.2653 85.7536 35.2613 85.8056 35.2513C86.2996 35.1733 86.7566 35.0553 87.2026 34.9263C86.9946 35.5813 86.6246 36.3543 85.9266 37.0643C84.6516 38.3573 82.6686 39.0543 80.0376 39.1573C79.7166 34.9463 78.5626 30.9683 76.7386 27.3823C80.8306 18.7723 90.0386 17.5613 94.6796 17.5393C94.7026 19.2543 94.0916 23.2423 88.2906 25.0983C87.7656 25.2663 87.4746 25.8283 87.6446 26.3563C87.8126 26.8813 88.3716 27.1693 88.9006 27.0023C90.0116 26.6473 90.9636 26.2193 91.7836 25.7433C92.1046 26.4133 92.1296 27.3173 91.8296 28.2993ZM77.6456 46.8993C76.7576 46.1863 75.6116 45.6503 74.2996 45.4333C71.0396 44.8923 68.0696 46.4623 67.6586 48.9433C67.2386 51.4233 69.5496 53.8823 72.7996 54.4233C73.6196 54.5583 74.4166 54.5513 75.1616 54.4393C70.3796 64.2093 60.3376 70.9533 48.7466 70.9533C37.1836 70.9533 27.1646 64.2413 22.3676 54.5113C22.9326 54.5473 23.5186 54.5263 24.1196 54.4243C27.3696 53.8833 29.6786 51.4243 29.2586 48.9443C28.8486 46.4643 25.8796 44.8933 22.6196 45.4343C21.5466 45.6163 20.5876 46.0163 19.7846 46.5433C19.5066 44.9233 19.3536 43.2613 19.3536 41.5633C19.3536 29.2103 27.0176 18.6203 37.8376 14.2783C41.1056 15.0683 44.9236 15.4773 48.6516 15.4773C52.4246 15.4773 56.2886 15.0593 59.5826 14.2493C70.4396 18.5733 78.1386 29.1833 78.1386 41.5623C78.1396 43.3853 77.9646 45.1673 77.6456 46.8993ZM11.3506 33.2753C7.6186 32.6853 5.6046 30.2263 5.0146 28.2983C4.7126 27.3163 4.73858 26.4123 5.05958 25.7403C5.87858 26.2163 6.83058 26.6433 7.94258 26.9993C8.46758 27.1673 9.03059 26.8783 9.19859 26.3533C9.36659 25.8283 9.07759 25.2633 8.55259 25.0953C2.74759 23.2373 2.14058 19.2473 2.16358 17.5363C6.87858 17.5573 16.3156 18.7923 20.3086 27.7743C20.3436 27.8543 20.3926 27.9223 20.4446 27.9883C18.7946 31.4173 17.7576 35.1913 17.4566 39.1693C14.4946 39.1703 12.2966 38.4603 10.9206 37.0613C10.2216 36.3513 9.85059 35.5793 9.64359 34.9233C10.0896 35.0523 10.5466 35.1703 11.0396 35.2483C11.0926 35.2583 11.1446 35.2623 11.1976 35.2623C11.6796 35.2623 12.1056 34.9103 12.1836 34.4183C12.2686 33.8733 11.8956 33.3613 11.3506 33.2753ZM48.7476 12.1703C51.1066 12.1703 53.3996 12.4573 55.6006 12.9843C53.4906 13.2953 51.1516 13.4763 48.6546 13.4763C46.2036 13.4763 43.9076 13.3003 41.8286 12.9993C44.0476 12.4623 46.3636 12.1703 48.7476 12.1703ZM31.0036 7.89832C31.0036 5.26532 38.5526 2.32031 48.6536 2.32031C58.7556 2.32031 66.3036 5.26532 66.3036 7.89832C66.3036 9.42032 63.7726 11.0423 59.6956 12.1433C56.2846 10.8703 52.5966 10.1693 48.7476 10.1693C44.8696 10.1693 41.1566 10.8813 37.7246 12.1723C33.5816 11.0713 31.0036 9.43332 31.0036 7.89832Z" fill="#D5D5D5"/>
<path d="M89.1695 20.3714C89.0385 19.9784 88.6125 19.7644 88.2225 19.8964C81.2455 22.2244 78.3985 27.7834 78.2795 28.0194C78.0955 28.3884 78.2445 28.8374 78.6135 29.0254C78.7225 29.0784 78.8365 29.1034 78.9495 29.1034C79.2245 29.1034 79.4885 28.9534 79.6215 28.6914C79.6465 28.6384 82.3305 23.4434 88.6975 21.3184C89.0895 21.1874 89.3015 20.7634 89.1695 20.3714Z" fill="#D5D5D5"/>
<path d="M17.2254 28.691C17.3564 28.953 17.6224 29.1031 17.8954 29.1031C18.0084 29.1031 18.1234 29.0781 18.2314 29.0251C18.6004 28.8371 18.7514 28.388 18.5654 28.019C18.4484 27.783 15.5984 22.2241 8.6224 19.8961C8.2314 19.7651 7.8064 19.978 7.6734 20.371C7.5424 20.764 7.7554 21.1871 8.1484 21.3181C14.5144 23.4431 17.1984 28.638 17.2254 28.691Z" fill="#D5D5D5"/>
<path d="M30.0033 38.9637C31.3012 38.9637 32.3533 37.9115 32.3533 36.6136C32.3533 35.3158 31.3012 34.2637 30.0033 34.2637C28.7055 34.2637 27.6533 35.3158 27.6533 36.6136C27.6533 37.9115 28.7055 38.9637 30.0033 38.9637Z" fill="#D5D5D5"/>
<path d="M67.3036 38.9637C68.6015 38.9637 69.6536 37.9115 69.6536 36.6136C69.6536 35.3158 68.6015 34.2637 67.3036 34.2637C66.0058 34.2637 64.9536 35.3158 64.9536 36.6136C64.9536 37.9115 66.0058 38.9637 67.3036 38.9637Z" fill="#D5D5D5"/>
<path d="M52.9053 43.8574C52.4913 43.8574 52.1553 44.1934 52.1553 44.6074C52.1553 47.3434 50.5853 49.5724 48.6533 49.5724C46.7233 49.5724 45.1533 47.3434 45.1533 44.6074C45.1533 44.1934 44.8173 43.8574 44.4033 43.8574C43.9893 43.8574 43.6533 44.1934 43.6533 44.6074C43.6533 48.1714 45.8953 51.0724 48.6533 51.0724C51.4113 51.0724 53.6553 48.1724 53.6553 44.6074C53.6553 44.1934 53.3193 43.8574 52.9053 43.8574Z" fill="#D5D5D5"/>
<path d="M18.0291 96.1009H16.2564C16.1882 95.7221 16.0613 95.3887 15.8757 95.1009C15.6901 94.813 15.4628 94.5687 15.1939 94.3679C14.925 94.1671 14.6238 94.0156 14.2905 93.9134C13.9609 93.8111 13.6106 93.7599 13.2393 93.7599C12.5689 93.7599 11.9685 93.9285 11.4382 94.2656C10.9117 94.6027 10.495 95.0971 10.1882 95.7486C9.88518 96.4001 9.73366 97.1955 9.73366 98.1349C9.73366 99.0819 9.88518 99.8812 10.1882 100.533C10.495 101.184 10.9136 101.677 11.4439 102.01C11.9742 102.343 12.5708 102.51 13.2337 102.51C13.6011 102.51 13.9496 102.461 14.2791 102.362C14.6125 102.26 14.9136 102.11 15.1825 101.913C15.4515 101.716 15.6787 101.476 15.8643 101.192C16.0537 100.904 16.1844 100.574 16.2564 100.203L18.0291 100.209C17.9344 100.781 17.7507 101.307 17.478 101.788C17.209 102.266 16.8625 102.679 16.4382 103.027C16.0178 103.372 15.5367 103.639 14.995 103.828C14.4534 104.018 13.8625 104.112 13.2223 104.112C12.2147 104.112 11.317 103.874 10.5291 103.396C9.74124 102.915 9.12003 102.228 8.66548 101.334C8.21473 100.44 7.98935 99.3736 7.98935 98.1349C7.98935 96.8925 8.21662 95.8262 8.67116 94.9361C9.12571 94.0421 9.74692 93.3565 10.5348 92.8793C11.3227 92.3982 12.2185 92.1577 13.2223 92.1577C13.8397 92.1577 14.4155 92.2467 14.9496 92.4247C15.4875 92.599 15.9704 92.8565 16.3984 93.1974C16.8265 93.5346 17.1806 93.9474 17.4609 94.4361C17.7412 94.9209 17.9306 95.4759 18.0291 96.1009ZM23.6697 104.129C22.8516 104.129 22.1375 103.942 21.5277 103.567C20.9179 103.192 20.4444 102.667 20.1072 101.993C19.7701 101.319 19.6016 100.531 19.6016 99.6293C19.6016 98.724 19.7701 97.9323 20.1072 97.2543C20.4444 96.5762 20.9179 96.0497 21.5277 95.6747C22.1375 95.2997 22.8516 95.1122 23.6697 95.1122C24.4879 95.1122 25.2019 95.2997 25.8118 95.6747C26.4216 96.0497 26.8951 96.5762 27.2322 97.2543C27.5694 97.9323 27.7379 98.724 27.7379 99.6293C27.7379 100.531 27.5694 101.319 27.2322 101.993C26.8951 102.667 26.4216 103.192 25.8118 103.567C25.2019 103.942 24.4879 104.129 23.6697 104.129ZM23.6754 102.703C24.2057 102.703 24.6451 102.563 24.9936 102.283C25.3421 102.002 25.5997 101.629 25.7663 101.163C25.9368 100.697 26.022 100.184 26.022 99.6236C26.022 99.0668 25.9368 98.5554 25.7663 98.0895C25.5997 97.6198 25.3421 97.2429 24.9936 96.9588C24.6451 96.6747 24.2057 96.5327 23.6754 96.5327C23.1413 96.5327 22.6982 96.6747 22.3459 96.9588C21.9974 97.2429 21.7379 97.6198 21.5675 98.0895C21.4008 98.5554 21.3175 99.0668 21.3175 99.6236C21.3175 100.184 21.4008 100.697 21.5675 101.163C21.7379 101.629 21.9974 102.002 22.3459 102.283C22.6982 102.563 23.1413 102.703 23.6754 102.703ZM29.6342 103.953V95.2259H31.2649V96.6463H31.3729C31.5547 96.1652 31.852 95.7902 32.2649 95.5213C32.6778 95.2486 33.1721 95.1122 33.7479 95.1122C34.3312 95.1122 34.8198 95.2486 35.2138 95.5213C35.6115 95.794 35.9051 96.169 36.0945 96.6463H36.1854C36.3937 96.1804 36.7251 95.8092 37.1797 95.5327C37.6342 95.2524 38.1759 95.1122 38.8047 95.1122C39.5964 95.1122 40.2422 95.3603 40.7422 95.8565C41.246 96.3527 41.4979 97.1009 41.4979 98.1009V103.953H39.799V98.2599C39.799 97.669 39.638 97.241 39.3161 96.9759C38.9941 96.7107 38.6096 96.5781 38.1626 96.5781C37.6096 96.5781 37.1797 96.7486 36.8729 97.0895C36.5661 97.4266 36.4126 97.8603 36.4126 98.3906V103.953H34.7195V98.152C34.7195 97.6785 34.5717 97.2978 34.2763 97.0099C33.9808 96.7221 33.5964 96.5781 33.1229 96.5781C32.8009 96.5781 32.5036 96.6634 32.2308 96.8338C31.9619 97.0005 31.7441 97.2334 31.5774 97.5327C31.4145 97.8319 31.3331 98.1785 31.3331 98.5724V103.953H29.6342ZM47.9283 95.2259V96.5895H42.9964V95.2259H47.9283ZM44.3487 103.953V94.2145C44.3487 93.669 44.468 93.2164 44.7067 92.8565C44.9453 92.4929 45.2616 92.2221 45.6555 92.044C46.0495 91.8622 46.4775 91.7713 46.9396 91.7713C47.2805 91.7713 47.5722 91.7997 47.8146 91.8565C48.0571 91.9096 48.237 91.9588 48.3544 92.0043L47.9567 93.3793C47.8771 93.3565 47.7749 93.33 47.6499 93.2997C47.5249 93.2656 47.3733 93.2486 47.1953 93.2486C46.7824 93.2486 46.487 93.3509 46.3089 93.5554C46.1347 93.7599 46.0476 94.0554 46.0476 94.4418V103.953H44.3487ZM53.0135 104.129C52.1953 104.129 51.4813 103.942 50.8714 103.567C50.2616 103.192 49.7881 102.667 49.451 101.993C49.1139 101.319 48.9453 100.531 48.9453 99.6293C48.9453 98.724 49.1139 97.9323 49.451 97.2543C49.7881 96.5762 50.2616 96.0497 50.8714 95.6747C51.4813 95.2997 52.1953 95.1122 53.0135 95.1122C53.8317 95.1122 54.5457 95.2997 55.1555 95.6747C55.7654 96.0497 56.2389 96.5762 56.576 97.2543C56.9131 97.9323 57.0817 98.724 57.0817 99.6293C57.0817 100.531 56.9131 101.319 56.576 101.993C56.2389 102.667 55.7654 103.192 55.1555 103.567C54.5457 103.942 53.8317 104.129 53.0135 104.129ZM53.0192 102.703C53.5495 102.703 53.9889 102.563 54.3374 102.283C54.6858 102.002 54.9434 101.629 55.1101 101.163C55.2805 100.697 55.3658 100.184 55.3658 99.6236C55.3658 99.0668 55.2805 98.5554 55.1101 98.0895C54.9434 97.6198 54.6858 97.2429 54.3374 96.9588C53.9889 96.6747 53.5495 96.5327 53.0192 96.5327C52.4851 96.5327 52.0419 96.6747 51.6896 96.9588C51.3411 97.2429 51.0817 97.6198 50.9112 98.0895C50.7446 98.5554 50.6612 99.0668 50.6612 99.6236C50.6612 100.184 50.7446 100.697 50.9112 101.163C51.0817 101.629 51.3411 102.002 51.6896 102.283C52.0419 102.563 52.4851 102.703 53.0192 102.703ZM58.978 103.953V95.2259H60.62V96.6122H60.7109C60.87 96.1425 61.1503 95.7732 61.5518 95.5043C61.9571 95.2315 62.4155 95.0952 62.9268 95.0952C63.0329 95.0952 63.1579 95.099 63.3018 95.1065C63.4496 95.1141 63.5651 95.1236 63.6484 95.1349V96.7599C63.5803 96.741 63.459 96.7202 63.2848 96.6974C63.1106 96.6709 62.9363 96.6577 62.7621 96.6577C62.3606 96.6577 62.0026 96.7429 61.6882 96.9134C61.3776 97.08 61.1314 97.313 60.9496 97.6122C60.7678 97.9077 60.6768 98.2448 60.6768 98.6236V103.953H58.978ZM69.7081 95.2259V96.5895H64.9411V95.2259H69.7081ZM66.2195 93.1349H67.9183V101.391C67.9183 101.72 67.9676 101.968 68.0661 102.135C68.1645 102.298 68.2914 102.41 68.4467 102.47C68.6058 102.527 68.7782 102.555 68.9638 102.555C69.1001 102.555 69.2195 102.546 69.3217 102.527C69.424 102.508 69.5036 102.493 69.5604 102.482L69.8672 103.885C69.7687 103.923 69.6286 103.961 69.4467 103.999C69.2649 104.04 69.0376 104.063 68.7649 104.067C68.3179 104.074 67.9013 103.995 67.5149 103.828C67.1286 103.661 66.8161 103.404 66.5774 103.055C66.3388 102.707 66.2195 102.269 66.2195 101.743V93.1349ZM75.255 104.129C74.3951 104.129 73.6546 103.946 73.0334 103.578C72.416 103.207 71.9387 102.686 71.6016 102.016C71.2682 101.341 71.1016 100.552 71.1016 99.6463C71.1016 98.7524 71.2682 97.9645 71.6016 97.2827C71.9387 96.6009 72.4084 96.0687 73.0107 95.6861C73.6167 95.3035 74.325 95.1122 75.1357 95.1122C75.6281 95.1122 76.1054 95.1937 76.5675 95.3565C77.0296 95.5194 77.4444 95.7751 77.8118 96.1236C78.1792 96.4721 78.469 96.9247 78.6811 97.4815C78.8932 98.0346 78.9993 98.7069 78.9993 99.4986V100.101H72.0618V98.8281H77.3345C77.3345 98.3812 77.2436 97.9853 77.0618 97.6406C76.88 97.2921 76.6243 97.0175 76.2947 96.8168C75.969 96.616 75.5864 96.5156 75.147 96.5156C74.6697 96.5156 74.2531 96.633 73.897 96.8679C73.5447 97.099 73.272 97.402 73.0788 97.777C72.8894 98.1482 72.7947 98.5516 72.7947 98.9872V99.9815C72.7947 100.565 72.897 101.061 73.1016 101.47C73.3099 101.879 73.5997 102.192 73.9709 102.408C74.3421 102.62 74.7758 102.726 75.272 102.726C75.594 102.726 75.8875 102.68 76.1527 102.589C76.4179 102.495 76.647 102.355 76.8402 102.169C77.0334 101.983 77.1811 101.754 77.2834 101.482L78.8913 101.771C78.7625 102.245 78.5315 102.66 78.1982 103.016C77.8686 103.368 77.4538 103.643 76.9538 103.839C76.4576 104.033 75.8913 104.129 75.255 104.129ZM84.1513 104.124C83.4467 104.124 82.8179 103.944 82.2649 103.584C81.7157 103.22 81.2839 102.703 80.9695 102.033C80.6589 101.358 80.5036 100.55 80.5036 99.6065C80.5036 98.6634 80.6607 97.8565 80.9751 97.1861C81.2933 96.5156 81.7289 96.0024 82.282 95.6463C82.835 95.2902 83.4619 95.1122 84.1626 95.1122C84.7043 95.1122 85.1399 95.2031 85.4695 95.3849C85.8028 95.563 86.0604 95.7713 86.2422 96.0099C86.4278 96.2486 86.5717 96.4588 86.674 96.6406H86.7763V92.3168H88.4751V103.953H86.8161V102.595H86.674C86.5717 102.781 86.424 102.993 86.2308 103.232C86.0414 103.47 85.7801 103.679 85.4467 103.857C85.1134 104.035 84.6816 104.124 84.1513 104.124ZM84.5263 102.675C85.0149 102.675 85.4278 102.546 85.7649 102.288C86.1058 102.027 86.3634 101.665 86.5376 101.203C86.7157 100.741 86.8047 100.203 86.8047 99.5895C86.8047 98.9834 86.7176 98.4531 86.5433 97.9986C86.3691 97.544 86.1134 97.1899 85.7763 96.9361C85.4392 96.6823 85.0225 96.5554 84.5263 96.5554C84.0149 96.5554 83.5888 96.688 83.2479 96.9531C82.907 97.2183 82.6494 97.58 82.4751 98.0384C82.3047 98.4967 82.2195 99.0137 82.2195 99.5895C82.2195 100.173 82.3066 100.697 82.4808 101.163C82.6551 101.629 82.9126 101.999 83.2536 102.271C83.5982 102.54 84.0225 102.675 84.5263 102.675Z" fill="#EAEBEE"/>
</svg>
