<svg width="63" height="64" viewBox="0 0 63 64" fill="none" xmlns="http://www.w3.org/2000/svg">
<path d="M31.4218 0.53418C14.1128 0.53418 0.0288086 14.6172 0.0288086 31.9262C0.0288086 49.2382 14.1128 63.3202 31.4218 63.3202C48.7318 63.3202 62.8148 49.2382 62.8148 31.9262C62.8138 14.6172 48.7318 0.53418 31.4218 0.53418ZM60.3188 37.2652C59.4328 36.5512 58.2858 36.0162 56.9738 35.7972C53.7138 35.2582 50.7438 36.8282 50.3328 39.3072C49.9128 41.7882 52.2238 44.2492 55.4738 44.7882C56.2928 44.9232 57.0898 44.9162 57.8358 44.8042C53.0538 54.5752 43.0118 61.3202 31.4208 61.3202C19.8578 61.3202 9.83881 54.6072 5.04181 44.8762C5.60681 44.9122 6.19282 44.8912 6.79382 44.7892C10.0438 44.2502 12.3528 41.7892 11.9328 39.3082C11.5228 36.8292 8.55382 35.2592 5.29382 35.7982C4.22082 35.9802 3.26183 36.3802 2.45883 36.9082C2.18183 35.2882 2.02783 33.6252 2.02783 31.9262C2.02783 15.7192 15.2138 2.53418 31.4208 2.53418C47.6278 2.53418 60.8138 15.7192 60.8138 31.9262C60.8138 33.7492 60.6378 35.5322 60.3188 37.2652Z" fill="#D5D5D5"/>
<path d="M40.3788 31.5143L40.2379 30.9443H22.4199L22.2788 31.5143C22.0198 32.5643 21.8898 33.6543 21.8878 34.7543H21.8608L21.9048 35.5463C21.9048 35.5513 21.9059 35.5553 21.9059 35.5603L21.9419 36.2543H21.9728C22.2438 38.7833 23.1949 41.0943 24.6999 42.8843L24.6819 42.9103L25.0909 43.3433C25.0939 43.3463 25.0969 43.3493 25.0999 43.3523L25.7399 44.0323L25.7659 43.9923C27.3729 45.3983 29.3189 46.1643 31.3299 46.1643C33.3399 46.1643 35.2839 45.3983 36.8909 43.9923L36.9168 44.0323L37.5569 43.3523C37.5599 43.3493 37.5629 43.3463 37.5659 43.3433L37.9749 42.9103L37.9568 42.8843C39.4638 41.0923 40.4129 38.7823 40.6839 36.2543H40.7228L40.7509 35.5553C40.7509 35.5523 40.7519 35.5493 40.7519 35.5463L40.8788 34.7603H40.7699C40.7679 33.6573 40.6368 32.5663 40.3788 31.5143ZM23.3868 34.5993C23.3978 33.8703 23.4719 33.1483 23.6099 32.4443H39.0479C39.1899 33.1703 39.2638 33.9143 39.2708 34.6643C38.9048 34.6223 38.5489 34.5923 38.1879 34.5553C37.8819 34.5253 37.5749 34.4913 37.2719 34.4633C36.7439 34.4143 36.2238 34.3753 35.7058 34.3383C35.4268 34.3183 35.1429 34.2933 34.8669 34.2753C34.3179 34.2403 33.7819 34.2163 33.2469 34.1943C33.0139 34.1843 32.7739 34.1693 32.5439 34.1623C31.7869 34.1373 31.0439 34.1233 30.3169 34.1233C29.7869 34.1233 29.2938 34.1323 28.8188 34.1433C28.6778 34.1463 28.5469 34.1513 28.4109 34.1553C28.0669 34.1673 27.7388 34.1803 27.4268 34.1963C27.3118 34.2023 27.1949 34.2073 27.0829 34.2143C26.6859 34.2373 26.3099 34.2633 25.9639 34.2913C25.9259 34.2943 25.8938 34.2983 25.8568 34.3013C25.5458 34.3273 25.2609 34.3563 24.9939 34.3853C24.9029 34.3953 24.8198 34.4053 24.7328 34.4143C24.5228 34.4383 24.3279 34.4633 24.1479 34.4873C24.0839 34.4963 24.0168 34.5043 23.9568 34.5123C23.7458 34.5423 23.5518 34.5713 23.3868 34.5993ZM26.6449 42.7593C26.6599 42.7433 26.6768 42.7303 26.6928 42.7153C26.8168 42.5863 26.9508 42.4633 27.0948 42.3473C27.1508 42.3023 27.2129 42.2623 27.2729 42.2193C27.3839 42.1383 27.4969 42.0583 27.6179 41.9843C27.6909 41.9393 27.7689 41.8973 27.8469 41.8553C27.9629 41.7913 28.0809 41.7293 28.2049 41.6713C28.2899 41.6313 28.3768 41.5943 28.4648 41.5583C28.5908 41.5063 28.7199 41.4583 28.8519 41.4123C28.9429 41.3823 29.0349 41.3513 29.1279 41.3233C29.2679 41.2823 29.4098 41.2463 29.5548 41.2133C29.6468 41.1923 29.7388 41.1693 29.8318 41.1513C29.9928 41.1203 30.1579 41.0973 30.3239 41.0763C30.4059 41.0663 30.4858 41.0523 30.5678 41.0443C30.8188 41.0203 31.0729 41.0063 31.3299 41.0063C31.5869 41.0063 31.8409 41.0213 32.0909 41.0443C32.1739 41.0523 32.2538 41.0663 32.3358 41.0763C32.5018 41.0973 32.6669 41.1203 32.8279 41.1503C32.9219 41.1693 33.0129 41.1913 33.1049 41.2133C33.2479 41.2473 33.3908 41.2823 33.5298 41.3233C33.6248 41.3503 33.7159 41.3823 33.8079 41.4133C33.9389 41.4583 34.0678 41.5063 34.1928 41.5583C34.2808 41.5943 34.3689 41.6313 34.4539 41.6713C34.5769 41.7293 34.6949 41.7903 34.8109 41.8543C34.8889 41.8973 34.9669 41.9393 35.0409 41.9843C35.1609 42.0573 35.2718 42.1373 35.3828 42.2173C35.4428 42.2613 35.5058 42.3023 35.5638 42.3483C35.7078 42.4633 35.8389 42.5853 35.9619 42.7123C35.9779 42.7293 35.9968 42.7423 36.0128 42.7593C36.0138 42.7613 36.0149 42.7623 36.0159 42.7643C34.6599 43.9933 33.0178 44.6633 31.3308 44.6633C29.6418 44.6633 27.9999 43.9923 26.6429 42.7643C26.6429 42.7623 26.6449 42.7593 26.6449 42.7593Z" fill="#D5D5D5"/>
<path d="M15.164 26.2275C13.143 26.2275 11.498 27.9625 11.498 30.0945C11.498 30.5085 11.834 30.8445 12.248 30.8445C12.662 30.8445 12.998 30.5085 12.998 30.0945C12.998 28.7895 13.971 27.7275 15.164 27.7275C16.359 27.7275 17.33 28.7905 17.33 30.0945C17.33 30.5085 17.666 30.8445 18.08 30.8445C18.494 30.8445 18.83 30.5085 18.83 30.0945C18.83 27.9625 17.185 26.2275 15.164 26.2275Z" fill="#D5D5D5"/>
<path d="M47.0146 26.2275C44.9936 26.2275 43.3486 27.9625 43.3486 30.0945C43.3486 30.5085 43.6846 30.8445 44.0986 30.8445C44.5126 30.8445 44.8486 30.5085 44.8486 30.0945C44.8486 28.7895 45.8216 27.7275 47.0146 27.7275C48.2096 27.7275 49.1806 28.7905 49.1806 30.0945C49.1806 30.5085 49.5166 30.8445 49.9306 30.8445C50.3446 30.8445 50.6806 30.5085 50.6806 30.0945C50.6806 27.9625 49.0366 26.2275 47.0146 26.2275Z" fill="#D5D5D5"/>
</svg>
