<svg width="87" height="99" viewBox="0 0 87 99" fill="none" xmlns="http://www.w3.org/2000/svg">
<path d="M43.4228 0.244141C26.1128 0.244141 12.0298 14.3271 12.0298 31.6371C12.0298 48.9471 26.1128 63.0301 43.4228 63.0301C60.7318 63.0301 74.8138 48.9471 74.8138 31.6371C74.8138 14.3271 60.7318 0.244141 43.4228 0.244141ZM72.3198 36.9731C71.4338 36.2611 70.2868 35.7251 68.9758 35.5081C65.7138 34.9681 62.7458 36.5381 62.3348 39.0181C61.9148 41.4981 64.2258 43.9591 67.4758 44.4981C68.2938 44.6331 69.0908 44.6261 69.8358 44.5141C65.0548 54.2841 55.0138 61.0301 43.4218 61.0301C31.8598 61.0301 21.8388 54.3171 17.0438 44.5861C17.6078 44.6231 18.1938 44.6011 18.7948 44.4991C22.0448 43.9591 24.3548 41.4991 23.9348 39.0191C23.5248 36.5401 20.5558 34.9691 17.2948 35.5091C16.2218 35.6911 15.2628 36.0911 14.4608 36.6191C14.1828 34.9991 14.0298 33.3361 14.0298 31.6381C14.0298 15.4311 27.2158 2.24514 43.4228 2.24514C59.6298 2.24514 72.8138 15.4311 72.8138 31.6381C72.8138 33.4591 72.6378 35.2411 72.3198 36.9731Z" fill="#D5D5D5"/>
<path d="M27.1646 25.9375C25.1416 25.9375 23.4976 27.6715 23.4976 29.8045C23.4976 30.2185 23.8336 30.5545 24.2476 30.5545C24.6616 30.5545 24.9976 30.2185 24.9976 29.8045C24.9976 28.4985 25.9696 27.4375 27.1646 27.4375C28.3586 27.4375 29.3306 28.4995 29.3306 29.8045C29.3306 30.2185 29.6666 30.5545 30.0806 30.5545C30.4946 30.5545 30.8306 30.2185 30.8306 29.8045C30.8306 27.6715 29.1856 25.9375 27.1646 25.9375Z" fill="#D5D5D5"/>
<path d="M59.0166 25.9375C56.9936 25.9375 55.3486 27.6715 55.3486 29.8045C55.3486 30.2185 55.6846 30.5545 56.0986 30.5545C56.5126 30.5545 56.8486 30.2185 56.8486 29.8045C56.8486 28.4985 57.8216 27.4375 59.0166 27.4375C60.2096 27.4375 61.1826 28.4995 61.1826 29.8045C61.1826 30.2185 61.5186 30.5545 61.9326 30.5545C62.3466 30.5545 62.6826 30.2185 62.6826 29.8045C62.6826 27.6715 61.0376 25.9375 59.0166 25.9375Z" fill="#D5D5D5"/>
<path d="M51.9527 35.4883H34.9517C34.5377 35.4883 34.2017 35.8243 34.2017 36.2383C34.2017 36.6523 34.5377 36.9883 34.9517 36.9883H37.5007C37.4707 37.3433 37.4517 37.7033 37.4517 38.0703C37.4517 42.9843 40.1377 46.9683 43.4517 46.9683C46.7647 46.9683 49.4527 42.9843 49.4527 38.0703C49.4527 37.7033 49.4327 37.3433 49.4037 36.9883H51.9527C52.3667 36.9883 52.7027 36.6523 52.7027 36.2383C52.7027 35.8243 52.3667 35.4883 51.9527 35.4883ZM43.9517 43.5733C43.9517 43.8493 43.7277 44.0733 43.4517 44.0733C43.1757 44.0733 42.9517 43.8493 42.9517 43.5733V43.1323C42.9517 42.8563 43.1757 42.6323 43.4517 42.6323C43.7277 42.6323 43.9517 42.8563 43.9517 43.1323V43.5733ZM43.9517 41.0743C43.9517 41.3503 43.7277 41.5743 43.4517 41.5743C43.1757 41.5743 42.9517 41.3503 42.9517 41.0743V36.9883H43.9517V41.0743Z" fill="#D5D5D5"/>
<path d="M15.6825 82.3939V94.0303H13.9268V82.3939H15.6825ZM19.8018 88.8485V94.0303H18.103V85.303H19.7337V86.7235H19.8416C20.0424 86.2613 20.3568 85.8901 20.7848 85.6098C21.2166 85.3295 21.7602 85.1894 22.4155 85.1894C23.0102 85.1894 23.531 85.3144 23.978 85.5644C24.425 85.8106 24.7715 86.178 25.0178 86.6666C25.264 87.1553 25.3871 87.7594 25.3871 88.4791V94.0303H23.6882V88.6837C23.6882 88.0511 23.5234 87.5568 23.1939 87.2007C22.8643 86.8409 22.4117 86.661 21.8359 86.661C21.442 86.661 21.0916 86.7462 20.7848 86.9166C20.4818 87.0871 20.2412 87.3371 20.0632 87.6666C19.889 87.9924 19.8018 88.3863 19.8018 88.8485ZM34.2053 87.4337L32.6655 87.7064C32.6011 87.5094 32.4988 87.3219 32.3587 87.1439C32.2223 86.9659 32.0367 86.82 31.8018 86.7064C31.567 86.5928 31.2734 86.536 30.9212 86.536C30.4401 86.536 30.0386 86.6439 29.7166 86.8598C29.3946 87.0719 29.2337 87.3466 29.2337 87.6837C29.2337 87.9753 29.3416 88.2102 29.5575 88.3882C29.7734 88.5663 30.1219 88.7121 30.603 88.8257L31.9893 89.1439C32.7924 89.3295 33.3909 89.6155 33.7848 90.0019C34.1787 90.3882 34.3757 90.8901 34.3757 91.5075C34.3757 92.0303 34.2242 92.4962 33.9212 92.9053C33.6219 93.3106 33.2034 93.6288 32.6655 93.8598C32.1314 94.0909 31.5121 94.2064 30.8075 94.2064C29.8303 94.2064 29.0329 93.9981 28.4155 93.5814C27.7981 93.161 27.4193 92.5644 27.2791 91.7916L28.9212 91.5416C29.0234 91.9697 29.2337 92.2935 29.5518 92.5132C29.87 92.7291 30.2848 92.8371 30.7962 92.8371C31.353 92.8371 31.7981 92.7216 32.1314 92.4905C32.4647 92.2557 32.6314 91.9697 32.6314 91.6325C32.6314 91.3598 32.5291 91.1307 32.3246 90.945C32.1238 90.7594 31.8151 90.6193 31.3984 90.5246L29.9212 90.2007C29.1068 90.0151 28.5045 89.7197 28.1143 89.3144C27.728 88.9091 27.5348 88.3958 27.5348 87.7746C27.5348 87.2594 27.6787 86.8087 27.9666 86.4223C28.2545 86.036 28.6522 85.7348 29.1598 85.5189C29.6674 85.2992 30.2488 85.1894 30.9041 85.1894C31.8473 85.1894 32.5897 85.3939 33.1314 85.803C33.6731 86.2083 34.031 86.7519 34.2053 87.4337ZM36.2436 97.303V85.303H37.9027V86.7178H38.0447C38.1432 86.536 38.2853 86.3257 38.4709 86.0871C38.6565 85.8485 38.9141 85.6401 39.2436 85.4621C39.5732 85.2803 40.0088 85.1894 40.5504 85.1894C41.255 85.1894 41.8838 85.3674 42.4368 85.7235C42.9898 86.0795 43.4235 86.5928 43.7379 87.2632C44.0561 87.9337 44.2152 88.7405 44.2152 89.6837C44.2152 90.6269 44.058 91.4356 43.7436 92.1098C43.4292 92.7803 42.9974 93.2973 42.4482 93.661C41.8989 94.0208 41.272 94.2007 40.5675 94.2007C40.0372 94.2007 39.6035 94.1117 39.2663 93.9337C38.933 93.7557 38.6716 93.5473 38.4822 93.3087C38.2929 93.07 38.147 92.8579 38.0447 92.6723H37.9425V97.303H36.2436ZM37.9084 89.6666C37.9084 90.2803 37.9974 90.8182 38.1754 91.2803C38.3535 91.7424 38.611 92.1041 38.9482 92.3655C39.2853 92.6231 39.6982 92.7519 40.1868 92.7519C40.6944 92.7519 41.1186 92.6174 41.4595 92.3485C41.8004 92.0757 42.058 91.7064 42.2322 91.2405C42.4103 90.7746 42.4993 90.25 42.4993 89.6666C42.4993 89.0909 42.4122 88.5738 42.2379 88.1155C42.0675 87.6572 41.8099 87.2954 41.4652 87.0303C41.1243 86.7651 40.6982 86.6325 40.1868 86.6325C39.6944 86.6325 39.2777 86.7594 38.9368 87.0132C38.5997 87.267 38.344 87.6212 38.1697 88.0757C37.9955 88.5303 37.9084 89.0606 37.9084 89.6666ZM46.1186 94.0303V85.303H47.8175V94.0303H46.1186ZM46.9766 83.9564C46.6811 83.9564 46.4273 83.8579 46.2152 83.661C46.0069 83.4602 45.9027 83.2216 45.9027 82.945C45.9027 82.6647 46.0069 82.4261 46.2152 82.2291C46.4273 82.0284 46.6811 81.928 46.9766 81.928C47.272 81.928 47.5239 82.0284 47.7322 82.2291C47.9444 82.4261 48.0504 82.6647 48.0504 82.945C48.0504 83.2216 47.9444 83.4602 47.7322 83.661C47.5239 83.8579 47.272 83.9564 46.9766 83.9564ZM50.103 94.0303V85.303H51.745V86.6894H51.8359C51.995 86.2197 52.2753 85.8503 52.6768 85.5814C53.0821 85.3087 53.5405 85.1723 54.0518 85.1723C54.1579 85.1723 54.2829 85.1761 54.4268 85.1837C54.5746 85.1913 54.6901 85.2007 54.7734 85.2121V86.8371C54.7053 86.8182 54.584 86.7973 54.4098 86.7746C54.2356 86.7481 54.0613 86.7348 53.8871 86.7348C53.4856 86.7348 53.1276 86.82 52.8132 86.9905C52.5026 87.1572 52.2564 87.3901 52.0746 87.6894C51.8928 87.9848 51.8018 88.3219 51.8018 88.7007V94.0303H50.103ZM59.6925 94.2064C58.8326 94.2064 58.0921 94.0227 57.4709 93.6553C56.8535 93.2841 56.3762 92.7632 56.0391 92.0928C55.7057 91.4185 55.5391 90.6288 55.5391 89.7235C55.5391 88.8295 55.7057 88.0416 56.0391 87.3598C56.3762 86.678 56.8459 86.1458 57.4482 85.7632C58.0542 85.3807 58.7625 85.1894 59.5732 85.1894C60.0656 85.1894 60.5429 85.2708 61.005 85.4337C61.4671 85.5966 61.8819 85.8522 62.2493 86.2007C62.6167 86.5492 62.9065 87.0019 63.1186 87.5587C63.3307 88.1117 63.4368 88.7841 63.4368 89.5757V90.178H56.4993V88.9053H61.772C61.772 88.4583 61.6811 88.0625 61.4993 87.7178C61.3175 87.3693 61.0618 87.0947 60.7322 86.8939C60.4065 86.6932 60.0239 86.5928 59.5845 86.5928C59.1072 86.5928 58.6906 86.7102 58.3345 86.945C57.9822 87.1761 57.7095 87.4791 57.5163 87.8541C57.3269 88.2253 57.2322 88.6288 57.2322 89.0644V90.0587C57.2322 90.642 57.3345 91.1382 57.5391 91.5473C57.7474 91.9564 58.0372 92.2689 58.4084 92.4848C58.7796 92.6969 59.2133 92.803 59.7095 92.803C60.0315 92.803 60.325 92.7575 60.5902 92.6666C60.8554 92.5719 61.0845 92.4318 61.2777 92.2462C61.4709 92.0606 61.6186 91.8314 61.7209 91.5587L63.3288 91.8485C63.2 92.3219 62.969 92.7367 62.6357 93.0928C62.3061 93.445 61.8913 93.7197 61.3913 93.9166C60.8951 94.1098 60.3288 94.2064 59.6925 94.2064ZM68.5888 94.2007C67.8842 94.2007 67.2554 94.0208 66.7024 93.661C66.1532 93.2973 65.7214 92.7803 65.407 92.1098C65.0964 91.4356 64.9411 90.6269 64.9411 89.6837C64.9411 88.7405 65.0982 87.9337 65.4126 87.2632C65.7308 86.5928 66.1664 86.0795 66.7195 85.7235C67.2725 85.3674 67.8994 85.1894 68.6001 85.1894C69.1418 85.1894 69.5774 85.2803 69.907 85.4621C70.2403 85.6401 70.4979 85.8485 70.6797 86.0871C70.8653 86.3257 71.0092 86.536 71.1115 86.7178H71.2138V82.3939H72.9126V94.0303H71.2536V92.6723H71.1115C71.0092 92.8579 70.8615 93.07 70.6683 93.3087C70.4789 93.5473 70.2176 93.7557 69.8842 93.9337C69.5509 94.1117 69.1191 94.2007 68.5888 94.2007ZM68.9638 92.7519C69.4524 92.7519 69.8653 92.6231 70.2024 92.3655C70.5433 92.1041 70.8009 91.7424 70.9751 91.2803C71.1532 90.8182 71.2422 90.2803 71.2422 89.6666C71.2422 89.0606 71.1551 88.5303 70.9808 88.0757C70.8066 87.6212 70.5509 87.267 70.2138 87.0132C69.8767 86.7594 69.46 86.6325 68.9638 86.6325C68.4524 86.6325 68.0263 86.7651 67.6854 87.0303C67.3445 87.2954 67.0869 87.6572 66.9126 88.1155C66.7422 88.5738 66.657 89.0909 66.657 89.6666C66.657 90.25 66.7441 90.7746 66.9183 91.2405C67.0926 91.7064 67.3501 92.0757 67.6911 92.3485C68.0357 92.6174 68.46 92.7519 68.9638 92.7519Z" fill="#EAEBEE"/>
</svg>
