<svg width="87" height="99" viewBox="0 0 87 99" fill="none" xmlns="http://www.w3.org/2000/svg">
<path d="M43.4208 0.536133C26.1118 0.536133 12.0298 14.6181 12.0298 31.9281C12.0298 49.2371 26.1118 63.3191 43.4208 63.3191C60.7318 63.3191 74.8138 49.2371 74.8138 31.9281C74.8138 14.6181 60.7318 0.536133 43.4208 0.536133ZM72.3188 37.2641C71.4318 36.5521 70.2858 36.0161 68.9728 35.7991C65.7128 35.2581 62.7448 36.8281 62.3338 39.3091C61.9138 41.7891 64.2228 44.2481 67.4728 44.7891C68.2928 44.9241 69.0898 44.9171 69.8348 44.8051C65.0528 54.5751 55.0108 61.3191 43.4198 61.3191C31.8568 61.3191 21.8388 54.6071 17.0428 44.8771C17.6068 44.9131 18.1928 44.8921 18.7928 44.7901C22.0428 44.2491 24.3538 41.7901 23.9338 39.3102C23.5238 36.8302 20.5528 35.2591 17.2928 35.8001C16.2198 35.9821 15.2618 36.3821 14.4598 36.9091C14.1818 35.2892 14.0288 33.6271 14.0288 31.9291C14.0288 15.7221 27.2128 2.53714 43.4198 2.53714C59.6268 2.53714 72.8128 15.7221 72.8128 31.9291C72.8138 33.7501 72.6388 35.5331 72.3188 37.2641Z" fill="#D5D5D5"/>
<path d="M26.2728 23.5304C26.2728 22.1534 23.0968 19.5284 21.0308 21.8414C18.9348 24.1854 21.8038 28.5444 26.2728 29.4154C30.7398 28.5444 33.6088 24.1854 31.5128 21.8414C29.4458 19.5284 26.2728 22.1534 26.2728 23.5304Z" fill="#D5D5D5"/>
<path d="M60.7 23.5304C60.7 22.1534 57.526 19.5284 55.46 21.8414C53.364 24.1854 56.233 28.5444 60.7 29.4154C65.169 28.5444 68.038 24.1854 65.942 21.8414C63.876 19.5284 60.7 22.1534 60.7 23.5304Z" fill="#D5D5D5"/>
<path d="M37.3466 33.0058C35.3136 34.8748 39.3976 38.0058 43.6476 38.0058C48.2106 38.0058 51.9796 34.8748 49.9466 33.0058C48.7726 31.9278 38.5226 31.9278 37.3466 33.0058Z" fill="#D5D5D5"/>
<path d="M26.4347 94.3193V82.683H28.1903V92.808H33.4631V94.3193H26.4347ZM39.0057 94.4955C38.1875 94.4955 37.4735 94.308 36.8636 93.933C36.2538 93.558 35.7803 93.0334 35.4432 92.3591C35.1061 91.6849 34.9375 90.897 34.9375 89.9955C34.9375 89.0902 35.1061 88.2985 35.4432 87.6205C35.7803 86.9424 36.2538 86.4159 36.8636 86.0409C37.4735 85.6659 38.1875 85.4784 39.0057 85.4784C39.8239 85.4784 40.5379 85.6659 41.1477 86.0409C41.7576 86.4159 42.2311 86.9424 42.5682 87.6205C42.9053 88.2985 43.0739 89.0902 43.0739 89.9955C43.0739 90.897 42.9053 91.6849 42.5682 92.3591C42.2311 93.0334 41.7576 93.558 41.1477 93.933C40.5379 94.308 39.8239 94.4955 39.0057 94.4955ZM39.0114 93.0693C39.5417 93.0693 39.9811 92.9292 40.3295 92.6489C40.678 92.3686 40.9356 91.9955 41.1023 91.5296C41.2727 91.0637 41.358 90.5504 41.358 89.9898C41.358 89.433 41.2727 88.9216 41.1023 88.4557C40.9356 87.986 40.678 87.6091 40.3295 87.325C39.9811 87.0409 39.5417 86.8989 39.0114 86.8989C38.4773 86.8989 38.0341 87.0409 37.6818 87.325C37.3333 87.6091 37.0739 87.986 36.9034 88.4557C36.7367 88.9216 36.6534 89.433 36.6534 89.9898C36.6534 90.5504 36.7367 91.0637 36.9034 91.5296C37.0739 91.9955 37.3333 92.3686 37.6818 92.6489C38.0341 92.9292 38.4773 93.0693 39.0114 93.0693ZM52.1392 85.5921L48.9744 94.3193H47.1562L43.9858 85.5921H45.8097L48.0199 92.308H48.1108L50.3153 85.5921H52.1392ZM57.2003 94.4955C56.3404 94.4955 55.5999 94.3118 54.9787 93.9443C54.3613 93.5731 53.884 93.0523 53.5469 92.3818C53.2135 91.7076 53.0469 90.9178 53.0469 90.0125C53.0469 89.1186 53.2135 88.3307 53.5469 87.6489C53.884 86.9671 54.3537 86.4349 54.956 86.0523C55.562 85.6697 56.2704 85.4784 57.081 85.4784C57.5734 85.4784 58.0507 85.5599 58.5128 85.7227C58.9749 85.8856 59.3897 86.1413 59.7571 86.4898C60.1245 86.8383 60.4143 87.2909 60.6264 87.8477C60.8385 88.4008 60.9446 89.0731 60.9446 89.8648V90.4671H54.0071V89.1943H59.2798C59.2798 88.7474 59.1889 88.3515 59.0071 88.0068C58.8253 87.6584 58.5696 87.3837 58.2401 87.183C57.9143 86.9822 57.5317 86.8818 57.0923 86.8818C56.6151 86.8818 56.1984 86.9993 55.8423 87.2341C55.4901 87.4652 55.2173 87.7682 55.0241 88.1432C54.8348 88.5144 54.7401 88.9178 54.7401 89.3534V90.3477C54.7401 90.9311 54.8423 91.4273 55.0469 91.8364C55.2552 92.2455 55.545 92.558 55.9162 92.7739C56.2874 92.986 56.7211 93.0921 57.2173 93.0921C57.5393 93.0921 57.8329 93.0466 58.098 92.9557C58.3632 92.861 58.5923 92.7209 58.7855 92.5352C58.9787 92.3496 59.1264 92.1205 59.2287 91.8477L60.8366 92.1375C60.7079 92.611 60.4768 93.0258 60.1435 93.3818C59.8139 93.7341 59.3991 94.0087 58.8991 94.2057C58.4029 94.3989 57.8366 94.4955 57.2003 94.4955Z" fill="#EAEBEE"/>
</svg>
