<svg width="87" height="99" viewBox="0 0 87 99" fill="none" xmlns="http://www.w3.org/2000/svg">
<path d="M43.4213 0.535156C26.1113 0.535156 12.0293 14.6171 12.0293 31.9261C12.0293 49.2371 26.1113 63.3192 43.4213 63.3192C60.7313 63.3192 74.8143 49.2371 74.8143 31.9261C74.8133 14.6171 60.7303 0.535156 43.4213 0.535156ZM72.3183 37.2632C71.4323 36.5502 70.2853 36.0151 68.9733 35.7961C65.7133 35.2571 62.7443 36.8272 62.3333 39.3082C61.9133 41.7862 64.2233 44.2472 67.4733 44.7862C68.2923 44.9222 69.0893 44.9152 69.8343 44.8042C65.0523 54.5722 55.0103 61.3181 43.4203 61.3181C31.8583 61.3181 21.8393 54.6052 17.0433 44.8762C17.6073 44.9122 18.1933 44.8902 18.7933 44.7872C22.0433 44.2482 24.3523 41.7871 23.9333 39.3091C23.5233 36.8291 20.5533 35.2581 17.2933 35.7971C16.2203 35.9811 15.2613 36.3802 14.4593 36.9072C14.1813 35.2872 14.0283 33.6241 14.0283 31.9261C14.0283 15.7211 27.2133 2.53516 43.4203 2.53516C59.6273 2.53516 72.8133 15.7211 72.8133 31.9261C72.8133 33.7491 72.6383 35.5312 72.3183 37.2632Z" fill="#D5D5D5"/>
<path d="M47.6763 36.6855C47.2623 36.6855 46.9263 37.0215 46.9263 37.4355C46.9263 40.1735 45.3563 42.4005 43.4263 42.4005C41.4963 42.4005 39.9263 40.1735 39.9263 37.4355C39.9263 37.0215 39.5903 36.6855 39.1763 36.6855C38.7623 36.6855 38.4263 37.0215 38.4263 37.4355C38.4263 41.0005 40.6693 43.9005 43.4263 43.9005C46.1833 43.9005 48.4263 41.0005 48.4263 37.4355C48.4263 37.0215 48.0903 36.6855 47.6763 36.6855Z" fill="#D5D5D5"/>
<path d="M48.3481 22.1074H38.1521H37.5891H20.9231H20.3601H18.6191C18.2051 22.1074 17.8691 22.4434 17.8691 22.8574C17.8691 23.2714 18.2051 23.6074 18.6191 23.6074H19.9941C19.8911 24.1674 19.8201 24.7294 19.8201 25.2914C19.8201 30.4944 24.0531 34.7274 29.2551 34.7274C33.4871 34.7274 37.0761 31.9264 38.2691 28.0814C39.1781 26.9154 41.0121 26.1754 43.1031 26.1504C45.2981 26.1504 47.2341 26.8704 48.2331 28.0964C49.4301 31.9334 53.0161 34.7264 57.2411 34.7264C62.4441 34.7264 66.6771 30.4944 66.6771 25.2904C66.6771 24.7294 66.6061 24.1664 66.5031 23.6064H68.2301C68.6441 23.6064 68.9801 23.2704 68.9801 22.8564C68.9801 22.4424 68.6441 22.1064 68.2301 22.1064H66.1391H65.9291H48.9111L48.3481 22.1074ZM47.8361 25.8184C46.5521 25.0454 44.9041 24.6144 43.0871 24.6504C41.4001 24.6704 39.8641 25.0804 38.6661 25.7924C38.6751 25.6254 38.6911 25.4604 38.6911 25.2914C38.6911 24.7304 38.6201 24.1674 38.5171 23.6074H47.9821C47.8791 24.1684 47.8081 24.7304 47.8081 25.2914C47.8091 25.4684 47.8261 25.6424 47.8361 25.8184Z" fill="#D5D5D5"/>
<path d="M6.13778 82.683H8.26847L11.973 91.7284H12.1094L15.8139 82.683H17.9446V94.3193H16.2741V85.8989H16.1662L12.7344 94.3023H11.348L7.91619 85.8932H7.80824V94.3193H6.13778V82.683ZM24.0369 94.4955C23.2188 94.4955 22.5047 94.308 21.8949 93.933C21.285 93.558 20.8116 93.0334 20.4744 92.3591C20.1373 91.6849 19.9688 90.897 19.9688 89.9955C19.9688 89.0902 20.1373 88.2985 20.4744 87.6205C20.8116 86.9424 21.285 86.4159 21.8949 86.0409C22.5047 85.6659 23.2188 85.4784 24.0369 85.4784C24.8551 85.4784 25.5691 85.6659 26.179 86.0409C26.7888 86.4159 27.2623 86.9424 27.5994 87.6205C27.9366 88.2985 28.1051 89.0902 28.1051 89.9955C28.1051 90.897 27.9366 91.6849 27.5994 92.3591C27.2623 93.0334 26.7888 93.558 26.179 93.933C25.5691 94.308 24.8551 94.4955 24.0369 94.4955ZM24.0426 93.0693C24.5729 93.0693 25.0123 92.9292 25.3608 92.6489C25.7093 92.3686 25.9669 91.9955 26.1335 91.5296C26.304 91.0637 26.3892 90.5504 26.3892 89.9898C26.3892 89.433 26.304 88.9216 26.1335 88.4557C25.9669 87.986 25.7093 87.6091 25.3608 87.325C25.0123 87.0409 24.5729 86.8989 24.0426 86.8989C23.5085 86.8989 23.0653 87.0409 22.7131 87.325C22.3646 87.6091 22.1051 87.986 21.9347 88.4557C21.768 88.9216 21.6847 89.433 21.6847 89.9898C21.6847 90.5504 21.768 91.0637 21.9347 91.5296C22.1051 91.9955 22.3646 92.3686 22.7131 92.6489C23.0653 92.9292 23.5085 93.0693 24.0426 93.0693ZM34.0753 85.5921V86.9557H29.3082V85.5921H34.0753ZM30.5866 83.5012H32.2855V91.7568C32.2855 92.0864 32.3348 92.3345 32.4332 92.5012C32.5317 92.664 32.6586 92.7758 32.8139 92.8364C32.973 92.8932 33.1454 92.9216 33.331 92.9216C33.4673 92.9216 33.5866 92.9121 33.6889 92.8932C33.7912 92.8743 33.8707 92.8591 33.9276 92.8477L34.2344 94.2512C34.1359 94.289 33.9957 94.3269 33.8139 94.3648C33.6321 94.4065 33.4048 94.4292 33.1321 94.433C32.6851 94.4405 32.2685 94.361 31.8821 94.1943C31.4957 94.0277 31.1832 93.7701 30.9446 93.4216C30.706 93.0731 30.5866 92.6356 30.5866 92.1091V83.5012ZM35.9545 94.3193V85.5921H37.6534V94.3193H35.9545ZM36.8125 84.2455C36.517 84.2455 36.2633 84.147 36.0511 83.95C35.8428 83.7493 35.7386 83.5106 35.7386 83.2341C35.7386 82.9538 35.8428 82.7152 36.0511 82.5182C36.2633 82.3174 36.517 82.2171 36.8125 82.2171C37.108 82.2171 37.3598 82.3174 37.5682 82.5182C37.7803 82.7152 37.8864 82.9538 37.8864 83.2341C37.8864 83.5106 37.7803 83.7493 37.5682 83.95C37.3598 84.147 37.108 84.2455 36.8125 84.2455ZM47.4048 85.5921L44.2401 94.3193H42.4219L39.2514 85.5921H41.0753L43.2855 92.308H43.3764L45.581 85.5921H47.4048ZM51.2912 94.5125C50.7382 94.5125 50.2382 94.4102 49.7912 94.2057C49.3442 93.9974 48.9901 93.6962 48.7287 93.3023C48.4711 92.9084 48.3423 92.4254 48.3423 91.8534C48.3423 91.361 48.437 90.9557 48.6264 90.6375C48.8158 90.3193 49.0715 90.0674 49.3935 89.8818C49.7154 89.6962 50.0753 89.5561 50.473 89.4614C50.8707 89.3667 51.276 89.2947 51.6889 89.2455C52.2116 89.1849 52.6359 89.1356 52.9616 89.0977C53.2874 89.0561 53.5241 88.9898 53.6719 88.8989C53.8196 88.808 53.8935 88.6602 53.8935 88.4557V88.4159C53.8935 87.9197 53.7533 87.5352 53.473 87.2625C53.1965 86.9898 52.7836 86.8534 52.2344 86.8534C51.6624 86.8534 51.2116 86.9803 50.8821 87.2341C50.5563 87.4841 50.331 87.7625 50.206 88.0693L48.6094 87.7057C48.7988 87.1754 49.0753 86.7474 49.4389 86.4216C49.8063 86.0921 50.2287 85.8534 50.706 85.7057C51.1832 85.5542 51.6851 85.4784 52.2116 85.4784C52.5601 85.4784 52.9295 85.5201 53.3196 85.6034C53.7135 85.683 54.081 85.8307 54.4219 86.0466C54.7666 86.2625 55.0488 86.5712 55.2685 86.9727C55.4882 87.3705 55.598 87.8875 55.598 88.5239V94.3193H53.9389V93.1262H53.8707C53.7609 93.3459 53.5961 93.5618 53.3764 93.7739C53.1567 93.986 52.8745 94.1621 52.5298 94.3023C52.1851 94.4424 51.7723 94.5125 51.2912 94.5125ZM51.6605 93.1489C52.1302 93.1489 52.5317 93.0561 52.8651 92.8705C53.2022 92.6849 53.4579 92.4424 53.6321 92.1432C53.8101 91.8402 53.8991 91.5163 53.8991 91.1716V90.0466C53.8385 90.1072 53.7211 90.164 53.5469 90.2171C53.3764 90.2663 53.1813 90.3099 52.9616 90.3477C52.742 90.3818 52.5279 90.414 52.3196 90.4443C52.1113 90.4709 51.937 90.4936 51.7969 90.5125C51.4673 90.5542 51.1662 90.6243 50.8935 90.7227C50.6245 90.8212 50.4086 90.9633 50.2457 91.1489C50.0866 91.3307 50.0071 91.5731 50.0071 91.8762C50.0071 92.2966 50.1624 92.6148 50.473 92.8307C50.7836 93.0428 51.1795 93.1489 51.6605 93.1489ZM61.9347 85.5921V86.9557H57.1676V85.5921H61.9347ZM58.446 83.5012H60.1449V91.7568C60.1449 92.0864 60.1941 92.3345 60.2926 92.5012C60.3911 92.664 60.518 92.7758 60.6733 92.8364C60.8324 92.8932 61.0047 92.9216 61.1903 92.9216C61.3267 92.9216 61.446 92.9121 61.5483 92.8932C61.6506 92.8743 61.7301 92.8591 61.7869 92.8477L62.0938 94.2512C61.9953 94.289 61.8551 94.3269 61.6733 94.3648C61.4915 94.4065 61.2642 94.4292 60.9915 94.433C60.5445 94.4405 60.1278 94.361 59.7415 94.1943C59.3551 94.0277 59.0426 93.7701 58.804 93.4216C58.5653 93.0731 58.446 92.6356 58.446 92.1091V83.5012ZM67.4815 94.4955C66.6217 94.4955 65.8812 94.3118 65.2599 93.9443C64.6425 93.5731 64.1652 93.0523 63.8281 92.3818C63.4948 91.7076 63.3281 90.9178 63.3281 90.0125C63.3281 89.1186 63.4948 88.3307 63.8281 87.6489C64.1652 86.9671 64.6349 86.4349 65.2372 86.0523C65.8433 85.6697 66.5516 85.4784 67.3622 85.4784C67.8546 85.4784 68.3319 85.5599 68.794 85.7227C69.2562 85.8856 69.6709 86.1413 70.0384 86.4898C70.4058 86.8383 70.6955 87.2909 70.9077 87.8477C71.1198 88.4008 71.2259 89.0731 71.2259 89.8648V90.4671H64.2884V89.1943H69.5611C69.5611 88.7474 69.4702 88.3515 69.2884 88.0068C69.1065 87.6584 68.8509 87.3837 68.5213 87.183C68.1955 86.9822 67.813 86.8818 67.3736 86.8818C66.8963 86.8818 66.4796 86.9993 66.1236 87.2341C65.7713 87.4652 65.4986 87.7682 65.3054 88.1432C65.116 88.5144 65.0213 88.9178 65.0213 89.3534V90.3477C65.0213 90.9311 65.1236 91.4273 65.3281 91.8364C65.5365 92.2455 65.8262 92.558 66.1974 92.7739C66.5687 92.986 67.0024 93.0921 67.4986 93.0921C67.8205 93.0921 68.1141 93.0466 68.3793 92.9557C68.6444 92.861 68.8736 92.7209 69.0668 92.5352C69.2599 92.3496 69.4077 92.1205 69.5099 91.8477L71.1179 92.1375C70.9891 92.611 70.758 93.0258 70.4247 93.3818C70.0952 93.7341 69.6804 94.0087 69.1804 94.2057C68.6842 94.3989 68.1179 94.4955 67.4815 94.4955ZM76.3778 94.4898C75.6733 94.4898 75.0445 94.3099 74.4915 93.95C73.9422 93.5864 73.5104 93.0693 73.196 92.3989C72.8854 91.7246 72.7301 90.9159 72.7301 89.9727C72.7301 89.0296 72.8873 88.2227 73.2017 87.5523C73.5199 86.8818 73.9555 86.3686 74.5085 86.0125C75.0616 85.6565 75.6884 85.4784 76.3892 85.4784C76.9309 85.4784 77.3665 85.5693 77.696 85.7512C78.0294 85.9292 78.2869 86.1375 78.4688 86.3762C78.6544 86.6148 78.7983 86.825 78.9006 87.0068H79.0028V82.683H80.7017V94.3193H79.0426V92.9614H78.9006C78.7983 93.147 78.6506 93.3591 78.4574 93.5977C78.268 93.8364 78.0066 94.0447 77.6733 94.2227C77.34 94.4008 76.9081 94.4898 76.3778 94.4898ZM76.7528 93.0409C77.2415 93.0409 77.6544 92.9121 77.9915 92.6546C78.3324 92.3932 78.59 92.0315 78.7642 91.5693C78.9422 91.1072 79.0312 90.5693 79.0312 89.9557C79.0312 89.3496 78.9441 88.8193 78.7699 88.3648C78.5956 87.9102 78.34 87.5561 78.0028 87.3023C77.6657 87.0485 77.2491 86.9216 76.7528 86.9216C76.2415 86.9216 75.8153 87.0542 75.4744 87.3193C75.1335 87.5845 74.8759 87.9462 74.7017 88.4046C74.5313 88.8629 74.446 89.3799 74.446 89.9557C74.446 90.539 74.5331 91.0637 74.7074 91.5296C74.8816 91.9955 75.1392 92.3648 75.4801 92.6375C75.8248 92.9065 76.2491 93.0409 76.7528 93.0409Z" fill="#EAEBEE"/>
</svg>
