<svg width="87" height="108" viewBox="0 0 87 108" fill="none" xmlns="http://www.w3.org/2000/svg">
<path d="M39.0268 9.70801C21.7168 9.70801 7.63379 23.791 7.63379 41.101C7.63379 58.409 21.7168 72.492 39.0268 72.492C56.3358 72.492 70.4198 58.41 70.4198 41.101C70.4198 23.791 56.3358 9.70801 39.0268 9.70801ZM67.9248 46.438C67.0388 45.725 65.8918 45.188 64.5798 44.972C61.3198 44.431 58.3498 46.001 57.9388 48.482C57.5188 50.961 59.8298 53.421 63.0798 53.961C63.8988 54.097 64.6958 54.089 65.4418 53.977C60.6598 63.746 50.6178 70.491 39.0268 70.491C27.4648 70.491 17.4448 63.779 12.6488 54.048C13.2128 54.085 13.7998 54.063 14.3998 53.961C17.6498 53.421 19.9598 50.961 19.5398 48.482C19.1298 46.002 16.1598 44.431 12.8998 44.972C11.8268 45.154 10.8668 45.554 10.0648 46.082C9.78679 44.461 9.63379 42.799 9.63379 41.101C9.63379 24.894 22.8198 11.708 39.0268 11.708C55.2338 11.708 68.4198 24.894 68.4198 41.101C68.4198 42.924 68.2438 44.706 67.9248 46.438Z" fill="#D5D5D5"/>
<path d="M25.9248 36.2793C25.5108 36.2793 25.1748 36.6153 25.1748 37.0293C25.1748 38.3343 24.2018 39.3963 23.0088 39.3963C21.8138 39.3963 20.8408 38.3343 20.8408 37.0293C20.8408 36.6153 20.5048 36.2793 20.0908 36.2793C19.6768 36.2793 19.3408 36.6153 19.3408 37.0293C19.3408 39.1613 20.9858 40.8963 23.0088 40.8963C25.0298 40.8963 26.6748 39.1613 26.6748 37.0293C26.6748 36.6153 26.3388 36.2793 25.9248 36.2793Z" fill="#D5D5D5"/>
<path d="M57.7769 36.2793C57.3629 36.2793 57.0269 36.6153 57.0269 37.0293C57.0269 38.3343 56.0539 39.3963 54.8609 39.3963C53.6659 39.3963 52.6929 38.3343 52.6929 37.0293C52.6929 36.6153 52.3569 36.2793 51.9429 36.2793C51.5289 36.2793 51.1929 36.6153 51.1929 37.0293C51.1929 39.1613 52.8379 40.8963 54.8609 40.8963C56.8819 40.8963 58.5269 39.1613 58.5269 37.0293C58.5269 36.6153 58.1909 36.2793 57.7769 36.2793Z" fill="#D5D5D5"/>
<path d="M39.0268 43.4336C37.7278 43.4336 36.6768 44.4866 36.6768 45.7836C36.6768 47.0816 37.7278 48.1336 39.0268 48.1336C40.3238 48.1336 41.3768 47.0816 41.3768 45.7836C41.3768 44.4866 40.3238 43.4336 39.0268 43.4336Z" fill="#D5D5D5"/>
<path d="M67.1008 11.7283C68.3278 11.3043 69.0718 10.2203 68.8178 8.81625C68.7538 8.45925 68.6618 8.14625 68.5688 7.88025L68.5718 7.87925L66.1188 0.78125L65.1738 1.10725L67.2718 7.17525C66.8288 7.25325 66.2718 7.37825 65.6718 7.58525C64.4448 8.00925 63.7718 9.27925 64.1658 10.4223C64.5598 11.5673 65.8748 12.1513 67.1008 11.7283Z" fill="#D5D5D5"/>
<path d="M76.9176 13.1797L76.3156 12.7627L74.5346 20.2407C74.1186 20.0687 73.5816 19.8747 72.9646 19.7277C71.7006 19.4267 70.4506 20.1377 70.1716 21.3137C69.8906 22.4917 70.6876 23.6887 71.9486 23.9897C73.2106 24.2907 74.4216 23.7747 74.9586 22.4537C75.0956 22.1177 75.1876 21.8037 75.2506 21.5307L75.2556 21.5317L76.9466 14.4307C77.7236 15.0127 78.1926 15.4877 78.2106 15.9287C78.2306 16.4377 77.6776 17.1477 76.5206 18.0957L77.1536 18.8687C78.6306 17.6587 79.2436 16.7677 79.2086 15.8877C79.1656 14.8227 78.1456 14.0317 76.9176 13.1797Z" fill="#D5D5D5"/>
<path d="M14.419 103.493V91.8568H18.5668C19.4683 91.8568 20.2164 92.0121 20.8111 92.3227C21.4096 92.6333 21.8565 93.0632 22.152 93.6125C22.4474 94.1579 22.5952 94.7886 22.5952 95.5045C22.5952 96.2166 22.4455 96.8435 22.1463 97.3852C21.8509 97.9231 21.4039 98.3416 20.8054 98.6409C20.2107 98.9401 19.4626 99.0898 18.5611 99.0898H15.419V97.5784H18.402C18.9702 97.5784 19.4323 97.497 19.7884 97.3341C20.1482 97.1712 20.4115 96.9345 20.5781 96.6238C20.7448 96.3132 20.8281 95.9401 20.8281 95.5045C20.8281 95.0651 20.7429 94.6845 20.5724 94.3625C20.4058 94.0405 20.1425 93.7943 19.7827 93.6238C19.4266 93.4496 18.9588 93.3625 18.3793 93.3625H16.1747V103.493H14.419ZM20.1634 98.2432L23.0384 103.493H21.0384L18.2202 98.2432H20.1634ZM28.2472 103.669C27.3873 103.669 26.6468 103.486 26.0256 103.118C25.4081 102.747 24.9309 102.226 24.5938 101.556C24.2604 100.881 24.0938 100.092 24.0938 99.1863C24.0938 98.2924 24.2604 97.5045 24.5938 96.8227C24.9309 96.1409 25.4006 95.6087 26.0028 95.2261C26.6089 94.8435 27.3172 94.6523 28.1278 94.6523C28.6203 94.6523 29.0975 94.7337 29.5597 94.8966C30.0218 95.0595 30.4366 95.3151 30.804 95.6636C31.1714 96.0121 31.4612 96.4648 31.6733 97.0216C31.8854 97.5746 31.9915 98.247 31.9915 99.0386V99.6409H25.054V98.3682H30.3267C30.3267 97.9212 30.2358 97.5254 30.054 97.1807C29.8722 96.8322 29.6165 96.5576 29.2869 96.3568C28.9612 96.156 28.5786 96.0557 28.1392 96.0557C27.6619 96.0557 27.2453 96.1731 26.8892 96.4079C26.5369 96.639 26.2642 96.942 26.071 97.317C25.8816 97.6882 25.7869 98.0916 25.7869 98.5273V99.5216C25.7869 100.105 25.8892 100.601 26.0938 101.01C26.3021 101.419 26.5919 101.732 26.9631 101.948C27.3343 102.16 27.768 102.266 28.2642 102.266C28.5862 102.266 28.8797 102.22 29.1449 102.13C29.41 102.035 29.6392 101.895 29.8324 101.709C30.0256 101.523 30.1733 101.294 30.2756 101.022L31.8835 101.311C31.7547 101.785 31.5237 102.2 31.1903 102.556C30.8608 102.908 30.446 103.183 29.946 103.38C29.4498 103.573 28.8835 103.669 28.2472 103.669ZM35.5753 91.8568V103.493H33.8764V91.8568H35.5753ZM40.4006 103.686C39.8475 103.686 39.3475 103.584 38.9006 103.38C38.4536 103.171 38.0994 102.87 37.8381 102.476C37.5805 102.082 37.4517 101.599 37.4517 101.027C37.4517 100.535 37.5464 100.13 37.7358 99.8113C37.9252 99.4932 38.1809 99.2413 38.5028 99.0557C38.8248 98.8701 39.1847 98.7299 39.5824 98.6352C39.9801 98.5405 40.3854 98.4685 40.7983 98.4193C41.321 98.3587 41.7453 98.3095 42.071 98.2716C42.3968 98.2299 42.6335 98.1636 42.7812 98.0727C42.929 97.9818 43.0028 97.8341 43.0028 97.6295V97.5898C43.0028 97.0935 42.8627 96.7091 42.5824 96.4363C42.3059 96.1636 41.893 96.0273 41.3438 96.0273C40.7718 96.0273 40.321 96.1541 39.9915 96.4079C39.6657 96.6579 39.4403 96.9363 39.3153 97.2432L37.7188 96.8795C37.9081 96.3492 38.1847 95.9212 38.5483 95.5954C38.9157 95.2659 39.3381 95.0273 39.8153 94.8795C40.2926 94.728 40.7945 94.6523 41.321 94.6523C41.6695 94.6523 42.0388 94.6939 42.429 94.7773C42.8229 94.8568 43.1903 95.0045 43.5312 95.2204C43.8759 95.4363 44.1581 95.7451 44.3778 96.1466C44.5975 96.5443 44.7074 97.0613 44.7074 97.6977V103.493H43.0483V102.3H42.9801C42.8703 102.52 42.7055 102.736 42.4858 102.948C42.2661 103.16 41.9839 103.336 41.6392 103.476C41.2945 103.616 40.8816 103.686 40.4006 103.686ZM40.7699 102.323C41.2396 102.323 41.6411 102.23 41.9744 102.044C42.3116 101.859 42.5672 101.616 42.7415 101.317C42.9195 101.014 43.0085 100.69 43.0085 100.345V99.2204C42.9479 99.281 42.8305 99.3379 42.6562 99.3909C42.4858 99.4401 42.2907 99.4837 42.071 99.5216C41.8513 99.5557 41.6373 99.5879 41.429 99.6182C41.2206 99.6447 41.0464 99.6674 40.9062 99.6863C40.5767 99.728 40.2756 99.7981 40.0028 99.8966C39.7339 99.9951 39.518 100.137 39.3551 100.323C39.196 100.505 39.1165 100.747 39.1165 101.05C39.1165 101.47 39.2718 101.789 39.5824 102.005C39.893 102.217 40.2888 102.323 40.7699 102.323ZM48.3111 94.7659L50.2372 98.1636L52.1804 94.7659H54.0384L51.3168 99.1295L54.0611 103.493H52.2031L50.2372 100.232L48.277 103.493H46.4134L49.1293 99.1295L46.4474 94.7659H48.3111ZM59.2003 103.669C58.3404 103.669 57.5999 103.486 56.9787 103.118C56.3613 102.747 55.884 102.226 55.5469 101.556C55.2135 100.881 55.0469 100.092 55.0469 99.1863C55.0469 98.2924 55.2135 97.5045 55.5469 96.8227C55.884 96.1409 56.3537 95.6087 56.956 95.2261C57.562 94.8435 58.2704 94.6523 59.081 94.6523C59.5734 94.6523 60.0507 94.7337 60.5128 94.8966C60.9749 95.0595 61.3897 95.3151 61.7571 95.6636C62.1245 96.0121 62.4143 96.4648 62.6264 97.0216C62.8385 97.5746 62.9446 98.247 62.9446 99.0386V99.6409H56.0071V98.3682H61.2798C61.2798 97.9212 61.1889 97.5254 61.0071 97.1807C60.8253 96.8322 60.5696 96.5576 60.2401 96.3568C59.9143 96.156 59.5317 96.0557 59.0923 96.0557C58.6151 96.0557 58.1984 96.1731 57.8423 96.4079C57.4901 96.639 57.2173 96.942 57.0241 97.317C56.8348 97.6882 56.7401 98.0916 56.7401 98.5273V99.5216C56.7401 100.105 56.8423 100.601 57.0469 101.01C57.2552 101.419 57.545 101.732 57.9162 101.948C58.2874 102.16 58.7211 102.266 59.2173 102.266C59.5393 102.266 59.8329 102.22 60.098 102.13C60.3632 102.035 60.5923 101.895 60.7855 101.709C60.9787 101.523 61.1264 101.294 61.2287 101.022L62.8366 101.311C62.7079 101.785 62.4768 102.2 62.1435 102.556C61.8139 102.908 61.3991 103.183 60.8991 103.38C60.4029 103.573 59.8366 103.669 59.2003 103.669ZM68.0966 103.664C67.392 103.664 66.7633 103.484 66.2102 103.124C65.661 102.76 65.2292 102.243 64.9148 101.573C64.6042 100.898 64.4489 100.09 64.4489 99.1466C64.4489 98.2034 64.6061 97.3966 64.9205 96.7261C65.2386 96.0557 65.6742 95.5424 66.2273 95.1863C66.7803 94.8303 67.4072 94.6523 68.108 94.6523C68.6496 94.6523 69.0852 94.7432 69.4148 94.925C69.7481 95.103 70.0057 95.3113 70.1875 95.55C70.3731 95.7886 70.517 95.9988 70.6193 96.1807H70.7216V91.8568H72.4205V103.493H70.7614V102.135H70.6193C70.517 102.321 70.3693 102.533 70.1761 102.772C69.9867 103.01 69.7254 103.219 69.392 103.397C69.0587 103.575 68.6269 103.664 68.0966 103.664ZM68.4716 102.215C68.9602 102.215 69.3731 102.086 69.7102 101.828C70.0511 101.567 70.3087 101.205 70.483 100.743C70.661 100.281 70.75 99.7432 70.75 99.1295C70.75 98.5235 70.6629 97.9932 70.4886 97.5386C70.3144 97.0841 70.0587 96.7299 69.7216 96.4761C69.3845 96.2223 68.9678 96.0954 68.4716 96.0954C67.9602 96.0954 67.5341 96.228 67.1932 96.4932C66.8523 96.7583 66.5947 97.1201 66.4205 97.5784C66.25 98.0367 66.1648 98.5538 66.1648 99.1295C66.1648 99.7129 66.2519 100.237 66.4261 100.703C66.6004 101.169 66.858 101.539 67.1989 101.811C67.5436 102.08 67.9678 102.215 68.4716 102.215Z" fill="#EAEBEE"/>
</svg>
