<svg width="87" height="99" viewBox="0 0 87 99" fill="none" xmlns="http://www.w3.org/2000/svg">
<path d="M43.4218 0.536133C26.1118 0.536133 12.0298 14.6201 12.0298 31.9281C12.0298 49.2371 26.1118 63.3191 43.4218 63.3191C60.7318 63.3191 74.8138 49.2371 74.8138 31.9281C74.8138 14.6201 60.7318 0.536133 43.4218 0.536133ZM72.3188 37.2641C71.8298 39.9181 70.9878 42.4511 69.8358 44.8051C67.6978 49.1731 64.5058 52.9321 60.5948 55.7581C61.2218 55.3041 61.8308 54.8261 62.4208 54.3261C62.4438 54.0701 62.4588 53.8031 62.4588 53.5171C62.4588 51.1091 61.5538 49.7531 60.9538 48.8551C60.5438 48.2421 60.4588 48.1151 60.4588 47.5251C60.4588 46.9391 60.5438 46.8101 60.9538 46.1971C61.5528 45.3001 62.4588 43.9451 62.4588 41.5391C62.4588 41.3041 62.4438 41.0871 62.4278 40.8721C62.4008 40.5061 62.3558 40.1631 62.2898 39.8491C61.9998 38.4531 61.3948 37.5401 60.9528 36.8801C60.5438 36.2671 60.4588 36.1401 60.4588 35.5561C60.4588 34.9681 60.5438 34.8411 60.9528 34.2301C61.5408 33.3511 62.4168 32.0251 62.4518 29.7081C62.7418 29.1551 62.9208 28.5291 62.9208 27.8551C62.9208 27.4411 62.5848 27.1051 62.1708 27.1051C61.7568 27.1051 61.4208 27.4411 61.4208 27.8551C61.4208 29.1621 60.4488 30.2221 59.2548 30.2221C58.0608 30.2221 57.0888 29.1611 57.0888 27.8551C57.0888 27.4411 56.7528 27.1051 56.3388 27.1051C55.9248 27.1051 55.5888 27.4411 55.5888 27.8551C55.5888 28.7461 55.8868 29.5561 56.3678 30.2101C56.2968 30.3951 56.1738 30.5831 55.9648 30.8951C55.3648 31.7921 54.4588 33.1471 54.4588 35.5551C54.4588 37.9611 55.3648 39.3171 55.9648 40.2131C56.3738 40.8241 56.4588 40.9511 56.4588 41.5371C56.4588 42.1231 56.3738 42.2501 55.9648 42.8631C55.3648 43.7601 54.4588 45.1171 54.4588 47.5231C54.4588 49.9311 55.3638 51.2892 55.9638 52.1852C56.3738 52.7981 56.4588 52.9271 56.4588 53.5151C56.4588 54.1031 56.3738 54.2301 55.9638 54.8431C55.3958 55.6951 54.5618 56.9701 54.4758 59.1511C51.0608 60.5431 47.3308 61.3161 43.4218 61.3161C39.4418 61.3161 35.6468 60.5171 32.1818 59.0781C32.0798 56.9441 31.2618 55.6851 30.6998 54.8441C30.2898 54.2311 30.2048 54.1041 30.2048 53.5161C30.2048 52.9281 30.2898 52.7991 30.6998 52.1861C31.2998 51.2891 32.2048 49.9321 32.2048 47.5241C32.2048 45.1181 31.2988 43.7601 30.6988 42.8641C30.2898 42.2511 30.2048 42.1241 30.2048 41.5381C30.2048 40.9521 30.2898 40.8251 30.6988 40.2141C31.2988 39.3181 32.2048 37.9621 32.2048 35.5561C32.2048 33.1481 31.2988 31.7921 30.6988 30.8961C30.4898 30.5831 30.3668 30.3961 30.2958 30.2111C30.2838 30.2271 30.2678 30.2391 30.2558 30.2551C30.7568 29.5931 31.0688 28.7671 31.0688 27.8561C31.0688 27.4421 30.7328 27.1061 30.3188 27.1061C29.9048 27.1061 29.5688 27.4421 29.5688 27.8561C29.5688 29.1631 28.5968 30.2231 27.4028 30.2231C26.2088 30.2231 25.2368 29.1621 25.2368 27.8561C25.2368 27.4421 24.9008 27.1061 24.4868 27.1061C24.0728 27.1061 23.7368 27.4421 23.7368 27.8561C23.7368 28.5371 23.9188 29.1661 24.2128 29.7231C24.2518 32.0311 25.1238 33.3541 25.7108 34.2311C26.1198 34.8421 26.2048 34.9691 26.2048 35.5571C26.2048 36.1411 26.1198 36.2681 25.7108 36.8811C25.1108 37.7771 24.2048 39.1331 24.2048 41.5391C24.2048 43.9451 25.1108 45.3011 25.7098 46.1971C26.1198 46.8101 26.2048 46.9391 26.2048 47.5251C26.2048 48.1151 26.1198 48.2421 25.7098 48.8551C25.1098 49.7531 24.2048 51.1091 24.2048 53.5171C24.2048 53.7461 24.2198 53.9561 24.2348 54.1651C21.2578 51.5931 18.7998 48.4381 17.0438 44.8761C15.8208 42.3961 14.9418 39.7201 14.4608 36.9081C14.1828 35.2881 14.0298 33.6261 14.0298 31.9281C14.0298 15.7211 27.2148 2.53613 43.4218 2.53613C59.6288 2.53613 72.8138 15.7211 72.8138 31.9281C72.8138 33.7501 72.6378 35.5331 72.3188 37.2641ZM56.9098 30.8041C56.9298 30.8221 56.9498 30.8391 56.9708 30.8571C56.9508 30.8391 56.9298 30.8221 56.9098 30.8041ZM57.5398 31.2521C57.5858 31.2781 57.6308 31.3081 57.6778 31.3311C57.6308 31.3071 57.5858 31.2791 57.5398 31.2521ZM58.2618 31.5611C58.3238 31.5791 58.3828 31.6061 58.4458 31.6211C58.3818 31.6061 58.3238 31.5791 58.2618 31.5611ZM54.4848 59.1511C55.2018 58.8581 55.9048 58.5381 56.5918 58.1911C55.9038 58.5371 55.2018 58.8581 54.4848 59.1511ZM59.2548 31.7231C59.4768 31.7231 59.6928 31.6941 59.9038 31.6541C59.6928 31.6951 59.4778 31.7231 59.2548 31.7231ZM60.0938 31.6111C60.2498 31.5731 60.3998 31.5211 60.5478 31.4631C60.3998 31.5221 60.2498 31.5721 60.0938 31.6111ZM60.7938 31.3541C60.9268 31.2891 61.0548 31.2141 61.1788 31.1331C61.0558 31.2151 60.9258 31.2871 60.7938 31.3541ZM61.4738 30.9141C61.5168 30.8791 61.5588 30.8411 61.6008 30.8041C61.5588 30.8401 61.5168 30.8781 61.4738 30.9141ZM27.4058 31.7231C27.4178 31.7231 27.4288 31.7191 27.4408 31.7191C27.4298 31.7191 27.4198 31.7231 27.4088 31.7231C27.4078 31.7231 27.4068 31.7231 27.4058 31.7231ZM28.2088 31.6231C28.2858 31.6041 28.3578 31.5721 28.4328 31.5491C28.3578 31.5731 28.2858 31.6041 28.2088 31.6231ZM28.9678 31.3391C29.0308 31.3071 29.0908 31.2691 29.1518 31.2341C29.0898 31.2701 29.0308 31.3071 28.9678 31.3391ZM27.3898 31.7221C27.1758 31.7201 26.9688 31.6941 26.7648 31.6551C26.9688 31.6931 27.1758 31.7211 27.3898 31.7221ZM26.5508 31.6071C26.4148 31.5721 26.2818 31.5281 26.1518 31.4761C26.2828 31.5271 26.4148 31.5731 26.5508 31.6071ZM25.7078 31.2641C25.6398 31.2261 25.5698 31.1911 25.5048 31.1481C25.5698 31.1901 25.6398 31.2261 25.7078 31.2641ZM25.1498 30.8831C25.1378 30.8721 25.1258 30.8621 25.1128 30.8511C25.1258 30.8621 25.1368 30.8731 25.1498 30.8831Z" fill="#D5D5D5"/>
<path d="M43.3938 33.3994C38.5178 33.3994 35.4297 38.3234 37.8867 40.2314C39.7707 41.6944 40.9137 39.4564 43.4097 39.4564C45.9067 39.4564 46.7477 41.8724 48.8997 40.2314C51.3727 38.3444 48.6268 33.3994 43.3938 33.3994Z" fill="#D5D5D5"/>
<path d="M36.3359 85.7398C36.2753 85.2019 36.0253 84.7852 35.5859 84.4898C35.1465 84.1905 34.5935 84.0409 33.9268 84.0409C33.4496 84.0409 33.0367 84.1167 32.6882 84.2682C32.3397 84.4159 32.0689 84.6205 31.8757 84.8818C31.6863 85.1394 31.5916 85.433 31.5916 85.7625C31.5916 86.039 31.656 86.2777 31.7848 86.4784C31.9174 86.6792 32.0897 86.8477 32.3018 86.9841C32.5178 87.1167 32.7488 87.2284 32.995 87.3193C33.2412 87.4065 33.478 87.4784 33.7053 87.5352L34.8416 87.8307C35.2128 87.9216 35.5935 88.0447 35.9837 88.2C36.3738 88.3553 36.7356 88.5599 37.0689 88.8137C37.4022 89.0674 37.6712 89.3818 37.8757 89.7568C38.084 90.1318 38.1882 90.5807 38.1882 91.1034C38.1882 91.7625 38.0178 92.3477 37.6768 92.8591C37.3397 93.3705 36.8492 93.7739 36.2053 94.0693C35.5651 94.3648 34.7905 94.5125 33.8814 94.5125C33.0102 94.5125 32.2564 94.3743 31.62 94.0977C30.9837 93.8212 30.4856 93.4292 30.1257 92.9216C29.7659 92.4102 29.567 91.8042 29.5291 91.1034H31.2905C31.3246 91.5239 31.4609 91.8743 31.6996 92.1546C31.942 92.4311 32.2507 92.6375 32.6257 92.7739C33.0045 92.9065 33.4193 92.9727 33.87 92.9727C34.3662 92.9727 34.8075 92.8951 35.1939 92.7398C35.584 92.5807 35.8909 92.361 36.1143 92.0807C36.3378 91.7966 36.4496 91.4652 36.4496 91.0864C36.4496 90.7417 36.3511 90.4595 36.1541 90.2398C35.9609 90.0201 35.6977 89.8383 35.3643 89.6943C35.0348 89.5504 34.6617 89.4235 34.245 89.3137L32.87 88.9387C31.9382 88.6849 31.1996 88.3118 30.6541 87.8193C30.1125 87.3269 29.8416 86.6754 29.8416 85.8648C29.8416 85.1943 30.0234 84.6091 30.3871 84.1091C30.7507 83.6091 31.2431 83.2209 31.8643 82.9443C32.4856 82.664 33.1863 82.5239 33.9666 82.5239C34.7545 82.5239 35.4496 82.6621 36.0518 82.9387C36.6579 83.2152 37.1352 83.5959 37.4837 84.0807C37.8322 84.5618 38.014 85.1148 38.0291 85.7398H36.3359ZM42.6896 94.5125C42.1366 94.5125 41.6366 94.4102 41.1896 94.2057C40.7427 93.9974 40.3885 93.6962 40.1271 93.3023C39.8696 92.9084 39.7408 92.4254 39.7408 91.8534C39.7408 91.361 39.8355 90.9557 40.0249 90.6375C40.2143 90.3193 40.4699 90.0674 40.7919 89.8818C41.1139 89.6962 41.4737 89.5561 41.8714 89.4614C42.2692 89.3667 42.6745 89.2947 43.0874 89.2455C43.6101 89.1849 44.0343 89.1356 44.3601 89.0977C44.6858 89.0561 44.9226 88.9898 45.0703 88.8989C45.218 88.808 45.2919 88.6602 45.2919 88.4557V88.4159C45.2919 87.9197 45.1518 87.5352 44.8714 87.2625C44.5949 86.9898 44.1821 86.8534 43.6328 86.8534C43.0608 86.8534 42.6101 86.9803 42.2805 87.2341C41.9548 87.4841 41.7294 87.7625 41.6044 88.0693L40.0078 87.7057C40.1972 87.1754 40.4737 86.7474 40.8374 86.4216C41.2048 86.0921 41.6271 85.8534 42.1044 85.7057C42.5817 85.5542 43.0836 85.4784 43.6101 85.4784C43.9586 85.4784 44.3279 85.5201 44.718 85.6034C45.112 85.683 45.4794 85.8307 45.8203 86.0466C46.165 86.2625 46.4472 86.5712 46.6669 86.9727C46.8866 87.3705 46.9964 87.8875 46.9964 88.5239V94.3193H45.3374V93.1262H45.2692C45.1593 93.3459 44.9946 93.5618 44.7749 93.7739C44.5552 93.986 44.273 94.1621 43.9283 94.3023C43.5836 94.4424 43.1707 94.5125 42.6896 94.5125ZM43.0589 93.1489C43.5286 93.1489 43.9302 93.0561 44.2635 92.8705C44.6006 92.6849 44.8563 92.4424 45.0305 92.1432C45.2086 91.8402 45.2976 91.5163 45.2976 91.1716V90.0466C45.237 90.1072 45.1196 90.164 44.9453 90.2171C44.7749 90.2663 44.5798 90.3099 44.3601 90.3477C44.1404 90.3818 43.9264 90.414 43.718 90.4443C43.5097 90.4709 43.3355 90.4936 43.1953 90.5125C42.8658 90.5542 42.5646 90.6243 42.2919 90.7227C42.023 90.8212 41.8071 90.9633 41.6442 91.1489C41.4851 91.3307 41.4055 91.5731 41.4055 91.8762C41.4055 92.2966 41.5608 92.6148 41.8714 92.8307C42.1821 93.0428 42.5779 93.1489 43.0589 93.1489ZM52.5263 94.4898C51.8217 94.4898 51.1929 94.3099 50.6399 93.95C50.0907 93.5864 49.6589 93.0693 49.3445 92.3989C49.0339 91.7246 48.8786 90.9159 48.8786 89.9727C48.8786 89.0296 49.0357 88.2227 49.3501 87.5523C49.6683 86.8818 50.1039 86.3686 50.657 86.0125C51.21 85.6565 51.8369 85.4784 52.5376 85.4784C53.0793 85.4784 53.5149 85.5693 53.8445 85.7512C54.1778 85.9292 54.4354 86.1375 54.6172 86.3762C54.8028 86.6148 54.9467 86.825 55.049 87.0068H55.1513V82.683H56.8501V94.3193H55.1911V92.9614H55.049C54.9467 93.147 54.799 93.3591 54.6058 93.5977C54.4164 93.8364 54.1551 94.0447 53.8217 94.2227C53.4884 94.4008 53.0566 94.4898 52.5263 94.4898ZM52.9013 93.0409C53.3899 93.0409 53.8028 92.9121 54.1399 92.6546C54.4808 92.3932 54.7384 92.0315 54.9126 91.5693C55.0907 91.1072 55.1797 90.5693 55.1797 89.9557C55.1797 89.3496 55.0926 88.8193 54.9183 88.3648C54.7441 87.9102 54.4884 87.5561 54.1513 87.3023C53.8142 87.0485 53.3975 86.9216 52.9013 86.9216C52.3899 86.9216 51.9638 87.0542 51.6229 87.3193C51.282 87.5845 51.0244 87.9462 50.8501 88.4046C50.6797 88.8629 50.5945 89.3799 50.5945 89.9557C50.5945 90.539 50.6816 91.0637 50.8558 91.5296C51.0301 91.9955 51.2876 92.3648 51.6286 92.6375C51.9732 92.9065 52.3975 93.0409 52.9013 93.0409Z" fill="#EAEBEE"/>
</svg>
