<svg width="87" height="99" viewBox="0 0 87 99" fill="none" xmlns="http://www.w3.org/2000/svg">
<path d="M43.4218 0.244141C26.1108 0.244141 12.0288 14.3271 12.0288 31.6361C12.0288 48.9451 26.1108 63.0291 43.4218 63.0291C60.7308 63.0291 74.8148 48.9461 74.8148 31.6361C74.8148 14.3261 60.7298 0.244141 43.4218 0.244141ZM72.3198 36.9741C71.4318 36.2611 70.2858 35.7261 68.9738 35.5081C65.7138 34.9681 62.7438 36.5381 62.3328 39.0181C61.9128 41.4981 64.2238 43.9571 67.4738 44.4981C68.2938 44.6331 69.0908 44.6251 69.8358 44.5141C65.0538 54.2841 55.0118 61.0301 43.4208 61.0301C31.8578 61.0301 21.8388 54.3171 17.0418 44.5851C17.6058 44.6221 18.1928 44.6001 18.7938 44.4991C22.0438 43.9581 24.3548 41.4991 23.9348 39.0191C23.5248 36.5401 20.5538 34.9691 17.2938 35.5091C16.2208 35.6911 15.2618 36.0911 14.4588 36.6191C14.1818 34.9991 14.0278 33.3361 14.0278 31.6381C14.0278 15.4311 27.2138 2.24614 43.4208 2.24614C59.6278 2.24614 72.8138 15.4311 72.8138 31.6381C72.8138 33.4591 72.6378 35.2411 72.3198 36.9741Z" fill="#D5D5D5"/>
<path d="M24.6767 24.3369C23.3797 24.3369 22.3267 25.3899 22.3267 26.6869C22.3267 27.9849 23.3797 29.0369 24.6767 29.0369C25.9757 29.0369 27.0287 27.9849 27.0287 26.6869C27.0287 25.3899 25.9757 24.3369 24.6767 24.3369Z" fill="#D5D5D5"/>
<path d="M61.9779 29.0369C63.2758 29.0369 64.3279 27.9848 64.3279 26.6869C64.3279 25.389 63.2758 24.3369 61.9779 24.3369C60.68 24.3369 59.6279 25.389 59.6279 26.6869C59.6279 27.9848 60.68 29.0369 61.9779 29.0369Z" fill="#D5D5D5"/>
<path d="M47.4718 29.0489C47.1788 28.7559 46.7038 28.7559 46.4108 29.0489L43.4188 32.0409L40.4268 29.0489C40.1338 28.7559 39.6587 28.7559 39.3657 29.0489C39.0727 29.3419 39.0727 29.8169 39.3657 30.1099L42.3578 33.1019L39.3657 36.0938C39.0727 36.3868 39.0727 36.8619 39.3657 37.1549C39.5117 37.3009 39.7038 37.3748 39.8948 37.3748C40.0858 37.3748 40.2797 37.3019 40.4257 37.1549L43.4177 34.1628L46.4098 37.1549C46.5558 37.3009 46.7477 37.3748 46.9387 37.3748C47.1317 37.3748 47.3238 37.3019 47.4698 37.1549C47.7628 36.8619 47.7628 36.3868 47.4698 36.0938L44.4777 33.1019L47.4698 30.1099C47.7648 29.8169 47.7648 29.3419 47.4718 29.0489Z" fill="#D5D5D5"/>
<path d="M13.4531 85.4498C13.3925 84.9119 13.1425 84.4952 12.7031 84.1998C12.2637 83.9005 11.7107 83.7509 11.044 83.7509C10.5668 83.7509 10.1539 83.8266 9.8054 83.9782C9.45691 84.1259 9.18608 84.3304 8.9929 84.5918C8.8035 84.8494 8.70881 85.1429 8.70881 85.4725C8.70881 85.749 8.7732 85.9876 8.90199 86.1884C9.03456 86.3891 9.20691 86.5577 9.41903 86.6941C9.63494 86.8266 9.866 86.9384 10.1122 87.0293C10.3584 87.1164 10.5952 87.1884 10.8224 87.2452L11.9588 87.5407C12.33 87.6316 12.7107 87.7547 13.1009 87.91C13.491 88.0653 13.8527 88.2698 14.1861 88.5236C14.5194 88.7774 14.7884 89.0918 14.9929 89.4668C15.2012 89.8418 15.3054 90.2907 15.3054 90.8134C15.3054 91.4725 15.1349 92.0577 14.794 92.5691C14.4569 93.0804 13.9664 93.4838 13.3224 93.7793C12.6823 94.0748 11.9077 94.2225 10.9986 94.2225C10.1274 94.2225 9.37358 94.0842 8.73722 93.8077C8.10085 93.5312 7.60275 93.1391 7.2429 92.6316C6.88305 92.1202 6.68419 91.5141 6.64631 90.8134H8.40767C8.44176 91.2338 8.57813 91.5842 8.81676 91.8645C9.05919 92.141 9.3679 92.3475 9.7429 92.4838C10.1217 92.6164 10.5365 92.6827 10.9872 92.6827C11.4834 92.6827 11.9247 92.6051 12.3111 92.4498C12.7012 92.2907 13.008 92.071 13.2315 91.7907C13.455 91.5066 13.5668 91.1751 13.5668 90.7963C13.5668 90.4516 13.4683 90.1694 13.2713 89.9498C13.0781 89.7301 12.8149 89.5482 12.4815 89.4043C12.152 89.2604 11.7789 89.1335 11.3622 89.0236L9.98722 88.6486C9.0554 88.3948 8.31676 88.0217 7.77131 87.5293C7.22964 87.0369 6.95881 86.3854 6.95881 85.5748C6.95881 84.9043 7.14063 84.3191 7.50426 83.8191C7.8679 83.3191 8.36032 82.9308 8.98153 82.6543C9.60275 82.374 10.3035 82.2338 11.0838 82.2338C11.8717 82.2338 12.5668 82.3721 13.169 82.6486C13.7751 82.9251 14.2524 83.3058 14.6009 83.7907C14.9493 84.2717 15.1312 84.8248 15.1463 85.4498H13.4531ZM22.7955 90.41V85.302H24.5V94.0293H22.8295V92.5179H22.7386C22.5379 92.9838 22.2159 93.3721 21.7727 93.6827C21.3333 93.9895 20.786 94.1429 20.1307 94.1429C19.5701 94.1429 19.0739 94.0198 18.642 93.7736C18.214 93.5236 17.8769 93.1543 17.6307 92.6657C17.3883 92.177 17.267 91.5729 17.267 90.8532V85.302H18.9659V90.6486C18.9659 91.2433 19.1307 91.7168 19.4602 92.0691C19.7898 92.4213 20.2178 92.5975 20.7443 92.5975C21.0625 92.5975 21.3788 92.5179 21.6932 92.3588C22.0114 92.1998 22.2746 91.9592 22.483 91.6373C22.6951 91.3153 22.7992 90.9062 22.7955 90.41ZM33.3224 87.4327L31.7827 87.7054C31.7183 87.5085 31.616 87.321 31.4759 87.1429C31.3395 86.9649 31.1539 86.8191 30.919 86.7054C30.6842 86.5918 30.3906 86.535 30.0384 86.535C29.5573 86.535 29.1558 86.6429 28.8338 86.8588C28.5118 87.071 28.3509 87.3456 28.3509 87.6827C28.3509 87.9744 28.4588 88.2092 28.6747 88.3873C28.8906 88.5653 29.2391 88.7111 29.7202 88.8248L31.1065 89.1429C31.9096 89.3285 32.508 89.6145 32.902 90.0009C33.2959 90.3873 33.4929 90.8891 33.4929 91.5066C33.4929 92.0293 33.3414 92.4952 33.0384 92.9043C32.7391 93.3096 32.3205 93.6278 31.7827 93.8588C31.2486 94.0899 30.6293 94.2054 29.9247 94.2054C28.9474 94.2054 28.1501 93.9971 27.5327 93.5804C26.9152 93.16 26.5365 92.5634 26.3963 91.7907L28.0384 91.5407C28.1406 91.9687 28.3509 92.2926 28.669 92.5123C28.9872 92.7282 29.402 92.8361 29.9134 92.8361C30.4702 92.8361 30.9152 92.7206 31.2486 92.4895C31.5819 92.2547 31.7486 91.9687 31.7486 91.6316C31.7486 91.3588 31.6463 91.1297 31.4418 90.9441C31.241 90.7585 30.9323 90.6183 30.5156 90.5236L29.0384 90.1998C28.224 90.0141 27.6217 89.7187 27.2315 89.3134C26.8452 88.9081 26.652 88.3948 26.652 87.7736C26.652 87.2585 26.7959 86.8077 27.0838 86.4213C27.3717 86.035 27.7694 85.7338 28.277 85.5179C28.7846 85.2982 29.366 85.1884 30.0213 85.1884C30.9645 85.1884 31.7069 85.3929 32.2486 85.802C32.7902 86.2073 33.1482 86.7509 33.3224 87.4327ZM35.3608 97.302V85.302H37.0199V86.7168H37.1619C37.2604 86.535 37.4025 86.3248 37.5881 86.0861C37.7737 85.8475 38.0313 85.6391 38.3608 85.4611C38.6903 85.2793 39.1259 85.1884 39.6676 85.1884C40.3722 85.1884 41.0009 85.3664 41.554 85.7225C42.107 86.0785 42.5407 86.5918 42.8551 87.2623C43.1733 87.9327 43.3324 88.7395 43.3324 89.6827C43.3324 90.6259 43.1752 91.4346 42.8608 92.1088C42.5464 92.7793 42.1146 93.2963 41.5653 93.66C41.0161 94.0198 40.3892 94.1998 39.6847 94.1998C39.1544 94.1998 38.7206 94.1107 38.3835 93.9327C38.0502 93.7547 37.7888 93.5463 37.5994 93.3077C37.41 93.0691 37.2642 92.8569 37.1619 92.6713H37.0597V97.302H35.3608ZM37.0256 89.6657C37.0256 90.2793 37.1146 90.8172 37.2926 91.2793C37.4706 91.7414 37.7282 92.1032 38.0653 92.3645C38.4025 92.6221 38.8153 92.7509 39.304 92.7509C39.8116 92.7509 40.2358 92.6164 40.5767 92.3475C40.9176 92.0748 41.1752 91.7054 41.3494 91.2395C41.5275 90.7736 41.6165 90.249 41.6165 89.6657C41.6165 89.0899 41.5294 88.5729 41.3551 88.1145C41.1847 87.6562 40.9271 87.2944 40.5824 87.0293C40.2415 86.7641 39.8153 86.6316 39.304 86.6316C38.8116 86.6316 38.3949 86.7585 38.054 87.0123C37.7169 87.266 37.4612 87.6202 37.2869 88.0748C37.1127 88.5293 37.0256 89.0596 37.0256 89.6657ZM48.9972 94.2054C48.1373 94.2054 47.3968 94.0217 46.7756 93.6543C46.1581 93.2831 45.6809 92.7623 45.3438 92.0918C45.0104 91.4176 44.8438 90.6278 44.8438 89.7225C44.8438 88.8285 45.0104 88.0407 45.3438 87.3588C45.6809 86.677 46.1506 86.1448 46.7528 85.7623C47.3589 85.3797 48.0672 85.1884 48.8778 85.1884C49.3703 85.1884 49.8475 85.2698 50.3097 85.4327C50.7718 85.5956 51.1866 85.8513 51.554 86.1998C51.9214 86.5482 52.2112 87.0009 52.4233 87.5577C52.6354 88.1107 52.7415 88.7831 52.7415 89.5748V90.177H45.804V88.9043H51.0767C51.0767 88.4573 50.9858 88.0615 50.804 87.7168C50.6222 87.3683 50.3665 87.0937 50.0369 86.8929C49.7112 86.6922 49.3286 86.5918 48.8892 86.5918C48.4119 86.5918 47.9953 86.7092 47.6392 86.9441C47.2869 87.1751 47.0142 87.4782 46.821 87.8532C46.6316 88.2244 46.5369 88.6278 46.5369 89.0634V90.0577C46.5369 90.641 46.6392 91.1373 46.8438 91.5463C47.0521 91.9554 47.3419 92.2679 47.7131 92.4838C48.0843 92.696 48.518 92.802 49.0142 92.802C49.3362 92.802 49.6297 92.7566 49.8949 92.6657C50.16 92.571 50.3892 92.4308 50.5824 92.2452C50.7756 92.0596 50.9233 91.8304 51.0256 91.5577L52.6335 91.8475C52.5047 92.321 52.2737 92.7357 51.9403 93.0918C51.6108 93.4441 51.196 93.7187 50.696 93.9157C50.1998 94.1088 49.6335 94.2054 48.9972 94.2054ZM56.3253 88.8475V94.0293H54.6264V85.302H56.2571V86.7225H56.3651C56.5658 86.2604 56.8802 85.8891 57.3082 85.6088C57.7401 85.3285 58.2836 85.1884 58.9389 85.1884C59.5336 85.1884 60.0545 85.3134 60.5014 85.5634C60.9484 85.8096 61.295 86.177 61.5412 86.6657C61.7874 87.1543 61.9105 87.7585 61.9105 88.4782V94.0293H60.2116V88.6827C60.2116 88.0501 60.0469 87.5558 59.7173 87.1998C59.3878 86.8399 58.9351 86.66 58.3594 86.66C57.9654 86.66 57.6151 86.7452 57.3082 86.9157C57.0052 87.0861 56.7647 87.3361 56.5866 87.6657C56.4124 87.9914 56.3253 88.3854 56.3253 88.8475ZM70.7287 87.4327L69.1889 87.7054C69.1245 87.5085 69.0223 87.321 68.8821 87.1429C68.7457 86.9649 68.5601 86.8191 68.3253 86.7054C68.0904 86.5918 67.7969 86.535 67.4446 86.535C66.9635 86.535 66.562 86.6429 66.2401 86.8588C65.9181 87.071 65.7571 87.3456 65.7571 87.6827C65.7571 87.9744 65.8651 88.2092 66.081 88.3873C66.2969 88.5653 66.6454 88.7111 67.1264 88.8248L68.5128 89.1429C69.3158 89.3285 69.9143 89.6145 70.3082 90.0009C70.7022 90.3873 70.8991 90.8891 70.8991 91.5066C70.8991 92.0293 70.7476 92.4952 70.4446 92.9043C70.1454 93.3096 69.7268 93.6278 69.1889 93.8588C68.6548 94.0899 68.0355 94.2054 67.331 94.2054C66.3537 94.2054 65.5563 93.9971 64.9389 93.5804C64.3215 93.16 63.9427 92.5634 63.8026 91.7907L65.4446 91.5407C65.5469 91.9687 65.7571 92.2926 66.0753 92.5123C66.3935 92.7282 66.8082 92.8361 67.3196 92.8361C67.8764 92.8361 68.3215 92.7206 68.6548 92.4895C68.9882 92.2547 69.1548 91.9687 69.1548 91.6316C69.1548 91.3588 69.0526 91.1297 68.848 90.9441C68.6473 90.7585 68.3385 90.6183 67.9219 90.5236L66.4446 90.1998C65.6302 90.0141 65.0279 89.7187 64.6378 89.3134C64.2514 88.9081 64.0582 88.3948 64.0582 87.7736C64.0582 87.2585 64.2022 86.8077 64.4901 86.4213C64.7779 86.035 65.1757 85.7338 65.6832 85.5179C66.1908 85.2982 66.7723 85.1884 67.4276 85.1884C68.3707 85.1884 69.1132 85.3929 69.6548 85.802C70.1965 86.2073 70.5545 86.7509 70.7287 87.4327ZM76.5284 94.2054C75.6686 94.2054 74.928 94.0217 74.3068 93.6543C73.6894 93.2831 73.2121 92.7623 72.875 92.0918C72.5417 91.4176 72.375 90.6278 72.375 89.7225C72.375 88.8285 72.5417 88.0407 72.875 87.3588C73.2121 86.677 73.6818 86.1448 74.2841 85.7623C74.8902 85.3797 75.5985 85.1884 76.4091 85.1884C76.9015 85.1884 77.3788 85.2698 77.8409 85.4327C78.303 85.5956 78.7178 85.8513 79.0852 86.1998C79.4527 86.5482 79.7424 87.0009 79.9545 87.5577C80.1667 88.1107 80.2727 88.7831 80.2727 89.5748V90.177H73.3352V88.9043H78.608C78.608 88.4573 78.517 88.0615 78.3352 87.7168C78.1534 87.3683 77.8977 87.0937 77.5682 86.8929C77.2424 86.6922 76.8598 86.5918 76.4205 86.5918C75.9432 86.5918 75.5265 86.7092 75.1705 86.9441C74.8182 87.1751 74.5455 87.4782 74.3523 87.8532C74.1629 88.2244 74.0682 88.6278 74.0682 89.0634V90.0577C74.0682 90.641 74.1705 91.1373 74.375 91.5463C74.5833 91.9554 74.8731 92.2679 75.2443 92.4838C75.6155 92.696 76.0492 92.802 76.5455 92.802C76.8674 92.802 77.161 92.7566 77.4261 92.6657C77.6913 92.571 77.9205 92.4308 78.1136 92.2452C78.3068 92.0596 78.4545 91.8304 78.5568 91.5577L80.1648 91.8475C80.036 92.321 79.8049 92.7357 79.4716 93.0918C79.142 93.4441 78.7273 93.7187 78.2273 93.9157C77.7311 94.1088 77.1648 94.2054 76.5284 94.2054Z" fill="#EAEBEE"/>
</svg>
