<svg width="87" height="99" viewBox="0 0 87 99" fill="none" xmlns="http://www.w3.org/2000/svg">
<path d="M69.2953 14.1771C77.9513 7.41912 69.9973 1.53412 69.9973 1.53412C71.2033 3.87312 69.8753 7.98313 64.4523 8.64313C58.8823 3.60813 51.5053 0.536133 43.4233 0.536133C35.3123 0.536133 27.9103 3.62812 22.3333 8.69412C16.5803 8.19012 15.1713 3.92812 16.4053 1.53412C16.4053 1.53412 8.28726 7.54613 17.3953 14.3931C14.0093 19.4041 12.0303 25.4391 12.0303 31.9281C12.0303 49.2371 26.1123 63.3191 43.4223 63.3191C60.7313 63.3191 74.8133 49.2371 74.8133 31.9281C74.8133 25.3441 72.7723 19.2301 69.2953 14.1771ZM67.4753 44.6331C68.3253 44.7731 69.1513 44.7631 69.9193 44.6381C69.8933 44.6951 69.8623 44.7491 69.8353 44.8051C65.0533 54.5751 55.0113 61.3191 43.4223 61.3191C31.8593 61.3191 21.8403 54.6071 17.0433 44.8771C17.0163 44.8211 16.9863 44.7681 16.9593 44.7121C17.5493 44.7571 18.1633 44.7401 18.7933 44.6341C21.7873 44.1361 23.9793 42.0091 23.9773 39.7381C23.9713 39.5951 23.9583 39.4531 23.9343 39.3101C23.5243 36.8301 20.5533 35.2591 17.2933 35.8001C16.2203 35.9821 15.2623 36.3821 14.4603 36.9091C14.1823 35.2891 14.0293 33.6271 14.0293 31.9291C14.0293 15.7221 27.2143 2.53613 43.4213 2.53613C59.6263 2.53613 72.8123 15.7221 72.8123 31.9291C72.8123 33.7511 72.6373 35.5331 72.3183 37.2651C71.4323 36.5521 70.2853 36.0171 68.9743 35.8001C65.7123 35.2591 62.7443 36.8291 62.3333 39.3101C62.3083 39.4521 62.2963 39.5951 62.2903 39.7381C62.2903 42.0081 64.4813 44.1351 67.4753 44.6331Z" fill="#D5D5D5"/>
<path d="M50.1835 32.6977L50.1225 32.0137H36.5325L36.4715 32.6977C36.4285 33.1817 36.3965 33.6767 36.3965 34.1817C36.3965 36.7207 36.9735 39.1407 38.0145 41.0567L38.0095 41.0717L38.1815 41.3687C38.1835 41.3707 38.1845 41.3737 38.1855 41.3757L39.0025 42.7647L39.0565 42.6127C40.2565 44.0597 41.7565 44.8767 43.3245 44.8767C44.8905 44.8767 46.3915 44.0597 47.5965 42.6097L47.6505 42.7627L48.4685 41.3757C48.4715 41.3707 48.4735 41.3657 48.4765 41.3607L48.6455 41.0727L48.6395 41.0567C49.6825 39.1417 50.2595 36.7207 50.2595 34.1817C50.2605 33.6767 50.2265 33.1817 50.1835 32.6977ZM43.3255 43.3757C41.9885 43.3757 40.6745 42.4907 39.6775 40.9357C39.6985 40.8907 39.7155 40.8437 39.7385 40.7987C39.7815 40.7127 39.8275 40.6277 39.8765 40.5457C39.9305 40.4557 39.9865 40.3687 40.0465 40.2837C40.1005 40.2067 40.1555 40.1317 40.2145 40.0587C40.2805 39.9777 40.3515 39.9007 40.4235 39.8247C40.4865 39.7587 40.5505 39.6927 40.6175 39.6307C40.6965 39.5597 40.7795 39.4937 40.8635 39.4287C40.9335 39.3737 41.0035 39.3177 41.0775 39.2677C41.1685 39.2057 41.2635 39.1537 41.3595 39.0997C41.4345 39.0567 41.5085 39.0117 41.5875 38.9747C41.6915 38.9237 41.8015 38.8837 41.9095 38.8427C41.9855 38.8147 42.0585 38.7807 42.1365 38.7567C42.2625 38.7187 42.3915 38.6927 42.5215 38.6657C42.5875 38.6517 42.6525 38.6317 42.7195 38.6217C42.9185 38.5917 43.1205 38.5737 43.3265 38.5737C43.5325 38.5737 43.7355 38.5917 43.9345 38.6217C44.0015 38.6317 44.0665 38.6517 44.1325 38.6657C44.2625 38.6917 44.3925 38.7187 44.5185 38.7567C44.5955 38.7807 44.6695 38.8147 44.7455 38.8427C44.8545 38.8837 44.9645 38.9237 45.0695 38.9747C45.1465 39.0117 45.2205 39.0567 45.2965 39.0987C45.3925 39.1537 45.4885 39.2057 45.5795 39.2677C45.6525 39.3177 45.7225 39.3727 45.7925 39.4277C45.8775 39.4927 45.9615 39.5597 46.0405 39.6317C46.1075 39.6927 46.1705 39.7587 46.2325 39.8237C46.3055 39.8997 46.3775 39.9777 46.4445 40.0597C46.5035 40.1307 46.5565 40.2057 46.6105 40.2807C46.6715 40.3677 46.7295 40.4567 46.7845 40.5487C46.8315 40.6287 46.8765 40.7107 46.9185 40.7937C46.9405 40.8397 46.9595 40.8887 46.9815 40.9357C45.9675 42.5117 44.6795 43.3757 43.3255 43.3757Z" fill="#D5D5D5"/>
<path d="M22.2373 31.1083C22.2373 32.4073 23.2903 33.4583 24.5873 33.4583C25.8393 33.4583 26.8533 32.4794 26.9253 31.2454L23.6713 28.9443C22.8293 29.3013 22.2373 30.1353 22.2373 31.1083Z" fill="#D5D5D5"/>
<path d="M64.2314 30.9521C64.2314 29.9791 63.6395 29.1451 62.7975 28.7881L59.5435 31.0891C59.6155 32.3231 60.6295 33.3021 61.8815 33.3021C63.1785 33.3011 64.2314 32.2511 64.2314 30.9521Z" fill="#D5D5D5"/>
<path d="M29.1594 29.0841C26.5074 29.0841 24.5264 26.8591 24.5264 24.8691C24.5264 24.4551 24.1904 24.1191 23.7764 24.1191C23.3624 24.1191 23.0264 24.4551 23.0264 24.8691C23.0264 27.9141 25.8914 30.5841 29.1594 30.5841C29.5734 30.5841 29.9094 30.2481 29.9094 29.8341C29.9094 29.4201 29.5734 29.0841 29.1594 29.0841Z" fill="#D5D5D5"/>
<path d="M63.5573 24.8701C63.5573 24.4561 63.2213 24.1201 62.8073 24.1201C62.3933 24.1201 62.0573 24.4561 62.0573 24.8701C62.0573 26.4451 60.0763 29.0851 57.4243 29.0851C57.0103 29.0851 56.6743 29.4211 56.6743 29.8351C56.6743 30.2491 57.0103 30.5851 57.4243 30.5851C60.6903 30.5841 63.5573 27.9151 63.5573 24.8701Z" fill="#D5D5D5"/>
<path d="M15.353 84.1943V82.683H24.3587V84.1943H20.728V94.3193H18.978V84.1943H15.353ZM27.9112 89.1375V94.3193H26.2124V82.683H27.8885V87.0125H27.9964C28.201 86.5428 28.5135 86.1697 28.9339 85.8932C29.3544 85.6167 29.9036 85.4784 30.5817 85.4784C31.1802 85.4784 31.7029 85.6015 32.1499 85.8477C32.6006 86.094 32.9491 86.4614 33.1953 86.95C33.4453 87.4349 33.5703 88.0409 33.5703 88.7682V94.3193H31.8714V88.9727C31.8714 88.3326 31.7067 87.8364 31.3771 87.4841C31.0476 87.128 30.5893 86.95 30.0021 86.95C29.6006 86.95 29.2408 87.0352 28.9226 87.2057C28.6082 87.3762 28.3601 87.6262 28.1783 87.9557C28.0002 88.2815 27.9112 88.6754 27.9112 89.1375ZM35.8374 94.3193V85.5921H37.4794V86.9784H37.5703C37.7294 86.5087 38.0097 86.1394 38.4112 85.8705C38.8165 85.5977 39.2749 85.4614 39.7862 85.4614C39.8923 85.4614 40.0173 85.4652 40.1612 85.4727C40.3089 85.4803 40.4245 85.4898 40.5078 85.5012V87.1262C40.4396 87.1072 40.3184 87.0864 40.1442 87.0637C39.9699 87.0371 39.7957 87.0239 39.6214 87.0239C39.2199 87.0239 38.862 87.1091 38.5476 87.2796C38.237 87.4462 37.9908 87.6792 37.8089 87.9784C37.6271 88.2739 37.5362 88.611 37.5362 88.9898V94.3193H35.8374ZM41.978 94.3193V85.5921H43.6768V94.3193H41.978ZM42.8359 84.2455C42.5405 84.2455 42.2867 84.147 42.0746 83.95C41.8662 83.7493 41.7621 83.5106 41.7621 83.2341C41.7621 82.9538 41.8662 82.7152 42.0746 82.5182C42.2867 82.3174 42.5405 82.2171 42.8359 82.2171C43.1314 82.2171 43.3833 82.3174 43.5916 82.5182C43.8037 82.7152 43.9098 82.9538 43.9098 83.2341C43.9098 83.5106 43.8037 83.7493 43.5916 83.95C43.3833 84.147 43.1314 84.2455 42.8359 84.2455ZM47.6612 82.683V94.3193H45.9624V82.683H47.6612ZM51.6456 82.683V94.3193H49.9467V82.683H51.6456ZM57.6925 94.4955C56.8326 94.4955 56.0921 94.3118 55.4709 93.9443C54.8535 93.5731 54.3762 93.0523 54.0391 92.3818C53.7057 91.7076 53.5391 90.9178 53.5391 90.0125C53.5391 89.1186 53.7057 88.3307 54.0391 87.6489C54.3762 86.9671 54.8459 86.4349 55.4482 86.0523C56.0542 85.6697 56.7625 85.4784 57.5732 85.4784C58.0656 85.4784 58.5429 85.5599 59.005 85.7227C59.4671 85.8856 59.8819 86.1413 60.2493 86.4898C60.6167 86.8383 60.9065 87.2909 61.1186 87.8477C61.3307 88.4008 61.4368 89.0731 61.4368 89.8648V90.4671H54.4993V89.1943H59.772C59.772 88.7474 59.6811 88.3515 59.4993 88.0068C59.3175 87.6584 59.0618 87.3837 58.7322 87.183C58.4065 86.9822 58.0239 86.8818 57.5845 86.8818C57.1072 86.8818 56.6906 86.9993 56.3345 87.2341C55.9822 87.4652 55.7095 87.7682 55.5163 88.1432C55.3269 88.5144 55.2322 88.9178 55.2322 89.3534V90.3477C55.2322 90.9311 55.3345 91.4273 55.5391 91.8364C55.7474 92.2455 56.0372 92.558 56.4084 92.7739C56.7796 92.986 57.2133 93.0921 57.7095 93.0921C58.0315 93.0921 58.325 93.0466 58.5902 92.9557C58.8554 92.861 59.0845 92.7209 59.2777 92.5352C59.4709 92.3496 59.6186 92.1205 59.7209 91.8477L61.3288 92.1375C61.2 92.611 60.969 93.0258 60.6357 93.3818C60.3061 93.7341 59.8913 94.0087 59.3913 94.2057C58.8951 94.3989 58.3288 94.4955 57.6925 94.4955ZM66.5888 94.4898C65.8842 94.4898 65.2554 94.3099 64.7024 93.95C64.1532 93.5864 63.7214 93.0693 63.407 92.3989C63.0964 91.7246 62.9411 90.9159 62.9411 89.9727C62.9411 89.0296 63.0982 88.2227 63.4126 87.5523C63.7308 86.8818 64.1664 86.3686 64.7195 86.0125C65.2725 85.6565 65.8994 85.4784 66.6001 85.4784C67.1418 85.4784 67.5774 85.5693 67.907 85.7512C68.2403 85.9292 68.4979 86.1375 68.6797 86.3762C68.8653 86.6148 69.0092 86.825 69.1115 87.0068H69.2138V82.683H70.9126V94.3193H69.2536V92.9614H69.1115C69.0092 93.147 68.8615 93.3591 68.6683 93.5977C68.4789 93.8364 68.2176 94.0447 67.8842 94.2227C67.5509 94.4008 67.1191 94.4898 66.5888 94.4898ZM66.9638 93.0409C67.4524 93.0409 67.8653 92.9121 68.2024 92.6546C68.5433 92.3932 68.8009 92.0315 68.9751 91.5693C69.1532 91.1072 69.2422 90.5693 69.2422 89.9557C69.2422 89.3496 69.1551 88.8193 68.9808 88.3648C68.8066 87.9102 68.5509 87.5561 68.2138 87.3023C67.8767 87.0485 67.46 86.9216 66.9638 86.9216C66.4524 86.9216 66.0263 87.0542 65.6854 87.3193C65.3445 87.5845 65.0869 87.9462 64.9126 88.4046C64.7422 88.8629 64.657 89.3799 64.657 89.9557C64.657 90.539 64.7441 91.0637 64.9183 91.5296C65.0926 91.9955 65.3501 92.3648 65.6911 92.6375C66.0357 92.9065 66.46 93.0409 66.9638 93.0409Z" fill="#EAEBEE"/>
</svg>
